<svg xmlns="http://www.w3.org/2000/svg" viewBox="0 0 31.89 84.33"><defs><style>.cls-1{fill:#eca030;}.cls-2{fill:#f4cc36;}</style></defs><title>느낌표</title><g id="MAIN"><path class="cls-1" d="M4,72.71a9.17,9.17,0,0,1,1-3.25A7.77,7.77,0,0,1,7,67a7.92,7.92,0,0,1,2.81-1.46,8.77,8.77,0,0,1,3.55-.26,8.83,8.83,0,0,1,3.34,1,7.83,7.83,0,0,1,2.42,2,7.59,7.59,0,0,1,1.38,2.82,9.63,9.63,0,0,1-.73,6.6,7.92,7.92,0,0,1-2,2.43A7.63,7.63,0,0,1,15,81.64a9.1,9.1,0,0,1-3.49.24,9.39,9.39,0,0,1-3.41-1,7.71,7.71,0,0,1-2.42-2,8,8,0,0,1-1.38-2.8A8.85,8.85,0,0,1,4,72.71ZM14.27,56.89a6.59,6.59,0,0,1-5.84-7.06L11.66,8.46a6.59,6.59,0,0,1,7.29-6l2.7.3a6.58,6.58,0,0,1,5.79,7.48L21.51,51.29A6.59,6.59,0,0,1,14.27,56.89Z"/><path class="cls-2" d="M1.8,72.71a9.17,9.17,0,0,1,1-3.25,7.68,7.68,0,0,1,4.77-3.91,8.8,8.8,0,0,1,3.55-.26,8.88,8.88,0,0,1,3.35,1,8,8,0,0,1,2.42,2,7.74,7.74,0,0,1,1.38,2.82,9.26,9.26,0,0,1,.22,3.38,8.83,8.83,0,0,1-1,3.22,7.92,7.92,0,0,1-2,2.43,7.51,7.51,0,0,1-2.8,1.43,9.11,9.11,0,0,1-3.49.24,9.33,9.33,0,0,1-3.41-1A7.57,7.57,0,0,1,2,76.06,9.05,9.05,0,0,1,1.8,72.71ZM12,56.89a6.59,6.59,0,0,1-5.83-7.06L9.44,8.46a6.58,6.58,0,0,1,7.29-6l2.7.3a6.57,6.57,0,0,1,5.78,7.48L19.28,51.29A6.58,6.58,0,0,1,12,56.89Z"/></g></svg>