<svg xmlns="http://www.w3.org/2000/svg" viewBox="0 0 247.21 238.91"><defs><style>.cls-1{fill:#2b2b2b;}.cls-2{fill:#fff;}.cls-3{fill:#e58d8c;fill-rule:evenodd;}</style></defs><title>메인 이미지</title><g id="MAIN"><g id="_3" data-name="3"><path class="cls-1" d="M145.76,224.77c-13.23,5.12-26.48,10.24-51,2-.45-.15-2.14,1.38.2,2.36,14.51,6,39.39,8.1,51.66-2.3C147.38,226.16,146.71,224.41,145.76,224.77Z"/><path class="cls-1" d="M173,162.94c-3.25-.43-9.28,4.92-10.88,7.49a104.54,104.54,0,0,0-6.4,11.18c-1.65,3.59-4.2,9.06-4.06,13,.11,3.1,2.71,9,5.11,11.24a11.47,11.47,0,0,1,.88,1.4c2.73-2.6,3.52-6.9,5.2-10.05,1.88-3.56,4-6.47,5.1-10.3,1.08-3.6,7.8-21.59,4.75-23.71Z"/><path class="cls-1" d="M63.59,163.83c1.58-.19,3.89,1.74,5.62,2.44,2.19.9,4.61,1.3,6.76,2.07,4.36,1.57,5,4.94,6.22,9.19s3.43,8.48,3.94,12.66c.35,2.86-3.32,9.94-6.47,11.35-2.22,1-2.33-.07-3.84-2.14a52.88,52.88,0,0,1-3.58-5.05c-1.57-2.78-2.94-6-4.28-8.81a54.5,54.5,0,0,1-4.67-21.71Z"/><path class="cls-2" d="M78.41,170.35c0-.24-.61-.62,0-.4,5.88,6.62,3.49,17.86,10.16,23.75,1.52,1.34,3.67,1.52,5.28,2.43,1.94,1.09,3.08,2.33,5.33,3,4.15,1.31,8.29,3,12.45,3.78s9.49.85,13.93.89c5.44,0,9.78-2.44,14.82-4.08,8.48-2.77,13.54-9.74,17.11-17.92,1.42-3.25,3.26-7.4,3.29-10.85-2.37-.46-5.91,2.18-8.24,2.92-3,1-6,1.87-8.9,2.89A60.64,60.64,0,0,1,127,180.43c-11.81.62-24.06.31-35.2-4.37-2.55-1.07-4.92-2.53-7.49-3.63-1.83-.79-4-1-5.59-2.15a4.58,4.58,0,0,0,.57-.82Z"/><path class="cls-2" d="M78.11,203.55c.45.45,6.22-10.67,8.29-11,1.46-.23,4.32,2.73,5.56,3.36a39.76,39.76,0,0,0,6.6,2.29c9.12,2.84,18.78,6.73,28.46,5,8.64-1.51,15.63-3.42,23-8.57,2,2.21,6.68,11.21,6.9,11.82,1.51,4.13-9.29,9-13,10.16-5,1.51-10.54,1.51-15.7,2.29-4.91.74-9.26,2.3-14.52,1.79-3.42-.32-7-1.44-10.37-2.08s-6.56-.8-9.78-2.15a34.87,34.87,0,0,1-8.29-5.33c-2.24-1.77-7.41-4.25-7.42-7.35Z"/><path class="cls-1" d="M174.28,159.63c-20.48,11.1-36.87,21.91-61.43,18.39a127.4,127.4,0,0,1-26.54-6.86c-7.15-2.66-24.71-11.63-24.71-8,0,13.13,7.83,30.35,15.24,41.2,18.48,27.09,71.39,17.43,81.35,5.17C168.37,197,178.76,157.2,174.28,159.63Zm-85.5,17.54c10,4.05,20.46,5.75,31.07,6.89,13,1.4,27-4.32,38.76-10.45-2.3,4.22-6.72,16.59-8.9,20.24-18.57,18.29-59.67,3.47-62-2.67-2.66-6.85-3.93-10.72-6.93-17.74C83.87,175,85.64,175.89,88.78,177.17ZM64.79,166A110.86,110.86,0,0,1,77,171.55c.76,3.27,6.5,14.7,7.92,20.64-2.1,2.32-4.19,6.31-7,8.88C64.18,178.85,64.15,170.25,64.79,166ZM80,203.25c2.57-4.35,5.47-6.79,7.31-9.49,7.69,6.63,21.17,10.67,30.43,11.67,10.56,1.13,23.1-2.55,32.48-8.21.86,2.88,4,7.11,5.06,10.57C151.93,215.08,96.16,230.68,80,203.25Zm77.26,2.56c-.26-.56-5-8.78-5.13-10.86,0,0,8.06-18.36,9.72-22.91,2.57-1.44,6.77-5.08,9.24-6.53C170.36,175.59,165.75,194.58,157.22,205.81Z"/><g id="Eyes"><path class="cls-2" d="M179.22,82.74c5.51,10.86-.63,38.37-16.07,41.1-16.79,3-29.38-7.14-31.91-20.49-5-26.25,17.46-36.09,27.38-36C168.35,67.49,174.16,72.73,179.22,82.74Z"/><path class="cls-2" d="M76.24,67c6.71-1.69,34.69,4.72,26.93,34.08C99.71,114.21,86.75,124.84,73,121.42c-15.23-3.8-22.72-29-14.81-40.45C61.84,75.7,69.63,68.65,76.24,67Z"/></g><path class="cls-1" d="M157.85,126.8c-5.56-.09-11.71-2.13-18.28-6.06-5.47-3.28-9.3-9.66-10.75-17.93-2.95-16.93,3.05-28.73,17.81-35.06a33.17,33.17,0,0,1,13.47-3c20.05.33,24.16,25.28,24.09,29.86C184,104.81,177.15,127.12,157.85,126.8Zm.77-59.18c-5.06-.06-15,2.73-21.63,10.66-5.55,6.63-7.41,15-5.51,25,2.3,12.24,12.51,20.6,25.37,20.82h0a32.69,32.69,0,0,0,6.25-.52c6.85-1.21,11.11-7.1,13.47-11.84,4.76-9.51,5.83-22.22,2.43-28.92-5.4-10.66-11.27-15.07-20.26-15.22Z"/><path class="cls-1" d="M148.71,136c-1.2-5.58-5.41-11.12-10.21-13.49a1.87,1.87,0,0,0-.66-.19.78.78,0,0,0-.8.56c-.34.87.21,2.76,1.41,3.81,6.26,5.53,8.58,10.58,6.89,15-3.12,8.13-18.67,11.8-28.27,11.71-4.65-.08-22.7-3.17-27.93-12.13-2-3.35-1.81-7.15.43-11.29.48-.9,1.82-2.8,3.52-5.21,4.43-6.3,11.13-15.83,12.21-21,1.22-5.83,1.48-29.12,1.13-32.34-.25-2.1-3.75-16.3-4.18-17.55-.57.71-1.87,0-2.47.59.9,3.49,4.87,20.1,4.22,23.33-2-2.59-6.82-8-12.68-11a23.65,23.65,0,0,0-10.15-2.47c-7.43-.12-15,3.26-20.79,9.27S51.7,87,52.1,94.05c.6,10.59,6.76,30.69,25.8,31a36.54,36.54,0,0,0,13-2.46C85,130.78,83.09,137,85.23,141c4.93,9.38,18,14.59,28.87,15.59,1.53.15,3.07.23,4.56.25,8.62.15,20.48-1.62,28-10.83C148.88,143.39,149.57,139.92,148.71,136Zm-70.8-14.16a21.49,21.49,0,0,1-4.83-.64c-6.53-1.63-12.33-7.63-15.51-16.06-3.38-9-3.06-18.4.83-24S70,68.81,76.3,67.24A10.42,10.42,0,0,1,79,67c4.55.08,14.76,2.32,20.8,10.3,4.63,6.12,5.7,14.1,3.15,23.72C99.77,113.07,89,122,77.91,121.83Z"/><path class="cls-1" d="M161.25,94.76a10.2,10.2,0,0,0-4.8-7A12.77,12.77,0,0,0,150.33,86a7.11,7.11,0,0,0-5.34,2c-5.15,5.24-2.64,12-.62,14.51a8.28,8.28,0,0,0,6.36,3.42c2.78,0,5.88-1.52,8.28-4.21A8.49,8.49,0,0,0,161.25,94.76Z"/><path class="cls-1" d="M92,87.05a7,7,0,0,0-5.26-2.15,12.76,12.76,0,0,0-6.18,1.59,10.24,10.24,0,0,0-5,6.87,8.43,8.43,0,0,0,2,6.93c2.29,2.77,5.32,4.45,8.11,4.5a8.3,8.3,0,0,0,6.46-3.21C94.25,99.19,97,92.5,92,87.05Z"/><path class="cls-1" d="M164.67,32.1c7.42,6.42,13.34,14.38,15.79,24-8-4.36-19.77-5.11-28.85-5.24-5.09-.1-12.4,1.08-17.22,0-2.68-.61,0-11.88.45-13.23,1.39-4.77,6.67-15.83,14-14.34C154.44,24.44,160.39,28.4,164.67,32.1Z"/><path class="cls-1" d="M182.13,60a6.74,6.74,0,0,1-2.26-.85L176.26,58c-5.95-1.93-12.1-3.92-18.26-4.5a33.6,33.6,0,0,0-8.67.26c-2.34.37-8.23,1.2-12.42.81a7.11,7.11,0,0,1-4-1.23c-6.43-5.68.9-21.23,4.26-26.74A11.11,11.11,0,0,1,148.41,21c4.07.38,8.93,2.42,14.41,6.09,10,6.66,20.19,19.1,20.56,31.9a1,1,0,0,1-.28.82A1.17,1.17,0,0,1,182.13,60ZM162,51.17c7.7.71,13.63,2.2,18.14,4.52-2.31-8.58-7.55-16.46-15.59-23.41-2.51-2.18-9.07-7.39-15.72-8.74-.23-.05-.48-.08-.71-.11-7-.65-11.88,10.38-13,14.29-.52,1.68-2.46,10.27-1.17,12.47a.83.83,0,0,0,.54.46,17.45,17.45,0,0,0,2.29.35h0a61.62,61.62,0,0,0,9-.12c2.13-.12,4.14-.24,5.91-.21C155.58,50.73,158.87,50.88,162,51.17Z"/><path class="cls-1" d="M102.51,39.83c.33,1.37.88,12.24-1.82,12.72-4.87.87-12.75-1-17.83-1.21-9.09-.33-19.24,0-27.48,3.91,3-9.53,9.63-18,17.34-24C77.19,27.74,83.9,23.88,89.55,23,97,21.87,101.36,35,102.51,39.83Z"/><path class="cls-1" d="M103.42,53.93c6.24-6-.07-21.36-3-26.81a11.11,11.11,0,0,0-10.9-6.2c-4.1.18-9,2-14.71,5.36-10.28,6.16-21.11,18.08-22.12,31a.91.91,0,0,0,.41.77,1.31,1.31,0,0,0,.8.17,6.49,6.49,0,0,0,2.29-.73h0a113,113,0,0,1,23.91-3.84c2.31-.1,4.63-.11,6.9,0a32.82,32.82,0,0,1,3.47.51,77.16,77.16,0,0,0,9.11,1A11.05,11.05,0,0,0,103.42,53.93Zm-2-2.2a1.16,1.16,0,0,1-.75.58,14.76,14.76,0,0,1-2,.2,57.49,57.49,0,0,1-9.37-.75c-2.35-.31-4.57-.6-6.45-.66-3.53-.13-6.44-.13-9.16,0-7.27.32-13.15,1.54-17.94,3.74,2.82-8.68,8.87-17,17.1-23.41,4.32-3.37,11-7.29,16.72-8.18.2,0,.41-.05.61-.06,7.94-.34,11.92,16,12.08,16.72C102.59,41.18,103,49.34,101.4,51.73Z"/></g><path class="cls-3" d="M7.85,145.53c3.64-7,26.07-18.42,36.1-2.21,7,11.38-.78,23.15-14.53,26C16.77,171.85-.87,162.31,7.85,145.53Z"/><path class="cls-3" d="M196.62,124.79c6.58-5.07,32-5.63,33,14.8.75,14.34-11.84,22.09-25.37,18.35C191.83,154.51,180.8,137,196.62,124.79Z"/></g></svg>