<svg id="로그인" xmlns="http://www.w3.org/2000/svg" xmlns:xlink="http://www.w3.org/1999/xlink" viewBox="0 0 992.17 1080"><defs><style>.cls-1,.cls-14,.cls-17,.cls-3{fill:none;}.cls-2{fill:#222;stroke:#231815;}.cls-11,.cls-12,.cls-14,.cls-17,.cls-18,.cls-2,.cls-3,.cls-5{stroke-miterlimit:10;}.cls-14,.cls-17,.cls-18,.cls-3,.cls-5{stroke:#fff;}.cls-3{stroke-width:10px;}.cls-4{isolation:isolate;}.cls-11,.cls-12,.cls-15,.cls-18,.cls-5,.cls-9{fill:#fff;}.cls-11,.cls-12,.cls-5{stroke-width:5px;}.cls-6{fill:#a3a3a4;}.cls-7{fill:#666565;}.cls-8{fill:#7b7b7b;}.cls-10{fill:#e95a59;}.cls-11{stroke:#fdfdfe;}.cls-12{stroke:#f1f1f9;}.cls-13{fill:#e5e5e5;}.cls-14,.cls-17{stroke-width:3px;}.cls-15{font-size:30px;font-family:Cafe24ClassicType-Regular, Cafe24 ClassicType;}.cls-16{fill:#fdfdfe;}.cls-17{stroke-linecap:round;}.cls-19{clip-path:url(#clip-path);}.cls-20{clip-path:url(#clip-path-2);}</style><clipPath id="clip-path"><rect id="SVGID" class="cls-1" x="650.94" y="49.89" width="296.8" height="189.99"/></clipPath><clipPath id="clip-path-2"><rect class="cls-1" x="37.65" y="824.01" width="356.48" height="214.01"/></clipPath></defs><title>디자인</title><rect class="cls-2" width="991.78" height="1080"/><path class="cls-3" d="M435.12,681.41c-1-.56-2.11-1.17-3.19-1.85s-2.27-1.5-3.44-2.36a73,73,0,0,1-6.74-5.48,62.45,62.45,0,0,1-5.95-6.25,34.37,34.37,0,0,1-4.3-6.47l-4,2.33a35,35,0,0,0,4.51,6.75,63.16,63.16,0,0,0,6.19,6.4,71,71,0,0,0,7.14,5.67c1.06.74,2.12,1.45,3.15,2.1q2.08,1.31,4.07,2.38l2.55-3,.14-.16Zm0,0c-1-.56-2.11-1.17-3.19-1.85s-2.27-1.5-3.44-2.36a73,73,0,0,1-6.74-5.48,62.45,62.45,0,0,1-5.95-6.25,34.37,34.37,0,0,1-4.3-6.47l-4,2.33a35,35,0,0,0,4.51,6.75,63.16,63.16,0,0,0,6.19,6.4,71,71,0,0,0,7.14,5.67c1.06.74,2.12,1.45,3.15,2.1q2.08,1.31,4.07,2.38l2.55-3,.14-.16Zm0,0c-1-.56-2.11-1.17-3.19-1.85s-2.27-1.5-3.44-2.36a73,73,0,0,1-6.74-5.48,62.45,62.45,0,0,1-5.95-6.25,34.37,34.37,0,0,1-4.3-6.47l-4,2.33a35,35,0,0,0,4.51,6.75,63.16,63.16,0,0,0,6.19,6.4,71,71,0,0,0,7.14,5.67c1.06.74,2.12,1.45,3.15,2.1q2.08,1.31,4.07,2.38l2.55-3,.14-.16Zm0,0c-1-.56-2.11-1.17-3.19-1.85s-2.27-1.5-3.44-2.36a73,73,0,0,1-6.74-5.48,62.45,62.45,0,0,1-5.95-6.25,34.37,34.37,0,0,1-4.3-6.47l-4,2.33a35,35,0,0,0,4.51,6.75,63.16,63.16,0,0,0,6.19,6.4,71,71,0,0,0,7.14,5.67c1.06.74,2.12,1.45,3.15,2.1q2.08,1.31,4.07,2.38l2.55-3,.14-.16Zm0,0c-1-.56-2.11-1.17-3.19-1.85s-2.27-1.5-3.44-2.36a73,73,0,0,1-6.74-5.48,62.45,62.45,0,0,1-5.95-6.25,34.37,34.37,0,0,1-4.3-6.47l-4,2.33a35,35,0,0,0,4.51,6.75,63.16,63.16,0,0,0,6.19,6.4,71,71,0,0,0,7.14,5.67c1.06.74,2.12,1.45,3.15,2.1q2.08,1.31,4.07,2.38l2.55-3,.14-.16Zm0,0c-1-.56-2.11-1.17-3.19-1.85s-2.27-1.5-3.44-2.36a73,73,0,0,1-6.74-5.48,62.45,62.45,0,0,1-5.95-6.25,34.37,34.37,0,0,1-4.3-6.47l-4,2.33a35,35,0,0,0,4.51,6.75,63.16,63.16,0,0,0,6.19,6.4,71,71,0,0,0,7.14,5.67c1.06.74,2.12,1.45,3.15,2.1q2.08,1.31,4.07,2.38l2.55-3,.14-.16Zm0,0c-1-.56-2.11-1.17-3.19-1.85s-2.27-1.5-3.44-2.36a73,73,0,0,1-6.74-5.48,62.45,62.45,0,0,1-5.95-6.25,34.37,34.37,0,0,1-4.3-6.47l-4,2.33a35,35,0,0,0,4.51,6.75,63.16,63.16,0,0,0,6.19,6.4,71,71,0,0,0,7.14,5.67c1.06.74,2.12,1.45,3.15,2.1q2.08,1.31,4.07,2.38l2.55-3,.14-.16Zm0,0c-1-.56-2.11-1.17-3.19-1.85s-2.27-1.5-3.44-2.36a73,73,0,0,1-6.74-5.48,62.45,62.45,0,0,1-5.95-6.25,34.37,34.37,0,0,1-4.3-6.47l-4,2.33a35,35,0,0,0,4.51,6.75,63.16,63.16,0,0,0,6.19,6.4,71,71,0,0,0,7.14,5.67c1.06.74,2.12,1.45,3.15,2.1q2.08,1.31,4.07,2.38l2.55-3,.14-.16Zm0,0c-1-.56-2.11-1.17-3.19-1.85s-2.27-1.5-3.44-2.36a73,73,0,0,1-6.74-5.48,62.45,62.45,0,0,1-5.95-6.25,34.37,34.37,0,0,1-4.3-6.47l-4,2.33a35,35,0,0,0,4.51,6.75,63.16,63.16,0,0,0,6.19,6.4,71,71,0,0,0,7.14,5.67c1.06.74,2.12,1.45,3.15,2.1q2.08,1.31,4.07,2.38l2.55-3,.14-.16Zm0,0c-1-.56-2.11-1.17-3.19-1.85s-2.27-1.5-3.44-2.36a73,73,0,0,1-6.74-5.48,62.45,62.45,0,0,1-5.95-6.25,34.37,34.37,0,0,1-4.3-6.47l-4,2.33a35,35,0,0,0,4.51,6.75,63.16,63.16,0,0,0,6.19,6.4,71,71,0,0,0,7.14,5.67c1.06.74,2.12,1.45,3.15,2.1q2.08,1.31,4.07,2.38l2.55-3,.14-.16Zm0,0c-1-.56-2.11-1.17-3.19-1.85s-2.27-1.5-3.44-2.36a73,73,0,0,1-6.74-5.48,62.45,62.45,0,0,1-5.95-6.25,34.37,34.37,0,0,1-4.3-6.47l-4,2.33a35,35,0,0,0,4.51,6.75,63.16,63.16,0,0,0,6.19,6.4,71,71,0,0,0,7.14,5.67c1.06.74,2.12,1.45,3.15,2.1q2.08,1.31,4.07,2.38l2.55-3,.14-.16Zm0,0c-1-.56-2.11-1.17-3.19-1.85s-2.27-1.5-3.44-2.36a73,73,0,0,1-6.74-5.48,62.45,62.45,0,0,1-5.95-6.25,34.37,34.37,0,0,1-4.3-6.47l-4,2.33a35,35,0,0,0,4.51,6.75,63.16,63.16,0,0,0,6.19,6.4,71,71,0,0,0,7.14,5.67c1.06.74,2.12,1.45,3.15,2.1q2.08,1.31,4.07,2.38l2.55-3,.14-.16Zm0,0c-1-.56-2.11-1.17-3.19-1.85s-2.27-1.5-3.44-2.36a73,73,0,0,1-6.74-5.48,62.45,62.45,0,0,1-5.95-6.25,34.37,34.37,0,0,1-4.3-6.47l-4,2.33a35,35,0,0,0,4.51,6.75,63.16,63.16,0,0,0,6.19,6.4,71,71,0,0,0,7.14,5.67c1.06.74,2.12,1.45,3.15,2.1q2.08,1.31,4.07,2.38l2.55-3,.14-.16Zm-1.19-220.54a58.61,58.61,0,0,1-6.85-9.31l-4,1.64-.33.14c.13.25.25.5.39.74a42.08,42.08,0,0,0,7.23,9.74,58.23,58.23,0,0,0,10.47,8.42l2.77-3.24A44.39,44.39,0,0,1,433.93,460.87Zm0,0a58.61,58.61,0,0,1-6.85-9.31l-4,1.64-.33.14c.13.25.25.5.39.74a42.08,42.08,0,0,0,7.23,9.74,58.23,58.23,0,0,0,10.47,8.42l2.77-3.24A44.39,44.39,0,0,1,433.93,460.87Zm1.19,220.54c-1-.56-2.11-1.17-3.19-1.85s-2.27-1.5-3.44-2.36a73,73,0,0,1-6.74-5.48,62.45,62.45,0,0,1-5.95-6.25,34.37,34.37,0,0,1-4.3-6.47l-4,2.33a35,35,0,0,0,4.51,6.75,63.16,63.16,0,0,0,6.19,6.4,71,71,0,0,0,7.14,5.67c1.06.74,2.12,1.45,3.15,2.1q2.08,1.31,4.07,2.38l2.55-3,.14-.16Zm0,0c-1-.56-2.11-1.17-3.19-1.85s-2.27-1.5-3.44-2.36a73,73,0,0,1-6.74-5.48,62.45,62.45,0,0,1-5.95-6.25,34.37,34.37,0,0,1-4.3-6.47l-4,2.33a35,35,0,0,0,4.51,6.75,63.16,63.16,0,0,0,6.19,6.4,71,71,0,0,0,7.14,5.67c1.06.74,2.12,1.45,3.15,2.1q2.08,1.31,4.07,2.38l2.55-3,.14-.16Zm-1.19-220.54a58.61,58.61,0,0,1-6.85-9.31l-4,1.64-.33.14c.13.25.25.5.39.74a42.08,42.08,0,0,0,7.23,9.74,58.23,58.23,0,0,0,10.47,8.42l2.77-3.24A44.39,44.39,0,0,1,433.93,460.87Zm0,0a58.61,58.61,0,0,1-6.85-9.31l-4,1.64-.33.14c.13.25.25.5.39.74a42.08,42.08,0,0,0,7.23,9.74,58.23,58.23,0,0,0,10.47,8.42l2.77-3.24A44.39,44.39,0,0,1,433.93,460.87Zm1.19,220.54c-1-.56-2.11-1.17-3.19-1.85s-2.27-1.5-3.44-2.36a73,73,0,0,1-6.74-5.48,62.45,62.45,0,0,1-5.95-6.25,34.37,34.37,0,0,1-4.3-6.47l-4,2.33a35,35,0,0,0,4.51,6.75,63.16,63.16,0,0,0,6.19,6.4,71,71,0,0,0,7.14,5.67c1.06.74,2.12,1.45,3.15,2.1q2.08,1.31,4.07,2.38l2.55-3,.14-.16Zm0,0c-1-.56-2.11-1.17-3.19-1.85s-2.27-1.5-3.44-2.36a73,73,0,0,1-6.74-5.48,62.45,62.45,0,0,1-5.95-6.25,34.37,34.37,0,0,1-4.3-6.47l-4,2.33a35,35,0,0,0,4.51,6.75,63.16,63.16,0,0,0,6.19,6.4,71,71,0,0,0,7.14,5.67c1.06.74,2.12,1.45,3.15,2.1q2.08,1.31,4.07,2.38l2.55-3,.14-.16Zm-1.19-220.54a58.61,58.61,0,0,1-6.85-9.31l-4,1.64-.33.14c.13.25.25.5.39.74a42.08,42.08,0,0,0,7.23,9.74,58.23,58.23,0,0,0,10.47,8.42l2.77-3.24A44.39,44.39,0,0,1,433.93,460.87Zm0,0a58.61,58.61,0,0,1-6.85-9.31l-4,1.64-.33.14c.13.25.25.5.39.74a42.08,42.08,0,0,0,7.23,9.74,58.23,58.23,0,0,0,10.47,8.42l2.77-3.24A44.39,44.39,0,0,1,433.93,460.87Zm1.19,220.54c-1-.56-2.11-1.17-3.19-1.85s-2.27-1.5-3.44-2.36a73,73,0,0,1-6.74-5.48,62.45,62.45,0,0,1-5.95-6.25,34.37,34.37,0,0,1-4.3-6.47l-4,2.33a35,35,0,0,0,4.51,6.75,63.16,63.16,0,0,0,6.19,6.4,71,71,0,0,0,7.14,5.67c1.06.74,2.12,1.45,3.15,2.1q2.08,1.31,4.07,2.38l2.55-3,.14-.16Zm0,0c-1-.56-2.11-1.17-3.19-1.85s-2.27-1.5-3.44-2.36a73,73,0,0,1-6.74-5.48,62.45,62.45,0,0,1-5.95-6.25,34.37,34.37,0,0,1-4.3-6.47l-4,2.33a35,35,0,0,0,4.51,6.75,63.16,63.16,0,0,0,6.19,6.4,71,71,0,0,0,7.14,5.67c1.06.74,2.12,1.45,3.15,2.1q2.08,1.31,4.07,2.38l2.55-3,.14-.16Zm-1.19-220.54a58.61,58.61,0,0,1-6.85-9.31l-4,1.64-.33.14c.13.25.25.5.39.74a42.08,42.08,0,0,0,7.23,9.74,58.23,58.23,0,0,0,10.47,8.42l2.77-3.24A44.39,44.39,0,0,1,433.93,460.87Zm0,0a58.61,58.61,0,0,1-6.85-9.31l-4,1.64-.33.14c.13.25.25.5.39.74a42.08,42.08,0,0,0,7.23,9.74,58.23,58.23,0,0,0,10.47,8.42l2.77-3.24A44.39,44.39,0,0,1,433.93,460.87Zm1.19,220.54c-1-.56-2.11-1.17-3.19-1.85s-2.27-1.5-3.44-2.36a73,73,0,0,1-6.74-5.48,62.45,62.45,0,0,1-5.95-6.25,34.37,34.37,0,0,1-4.3-6.47l-4,2.33a35,35,0,0,0,4.51,6.75,63.16,63.16,0,0,0,6.19,6.4,71,71,0,0,0,7.14,5.67c1.06.74,2.12,1.45,3.15,2.1q2.08,1.31,4.07,2.38l2.55-3,.14-.16Zm0,0c-1-.56-2.11-1.17-3.19-1.85s-2.27-1.5-3.44-2.36a73,73,0,0,1-6.74-5.48,62.45,62.45,0,0,1-5.95-6.25,34.37,34.37,0,0,1-4.3-6.47l-4,2.33a35,35,0,0,0,4.51,6.75,63.16,63.16,0,0,0,6.19,6.4,71,71,0,0,0,7.14,5.67c1.06.74,2.12,1.45,3.15,2.1q2.08,1.31,4.07,2.38l2.55-3,.14-.16Zm-1.19-220.54a58.61,58.61,0,0,1-6.85-9.31l-4,1.64-.33.14c.13.25.25.5.39.74a42.08,42.08,0,0,0,7.23,9.74,58.23,58.23,0,0,0,10.47,8.42l2.77-3.24A44.39,44.39,0,0,1,433.93,460.87Zm0,0a58.61,58.61,0,0,1-6.85-9.31l-4,1.64-.33.14c.13.25.25.5.39.74a42.08,42.08,0,0,0,7.23,9.74,58.23,58.23,0,0,0,10.47,8.42l2.77-3.24A44.39,44.39,0,0,1,433.93,460.87Zm1.19,220.54c-1-.56-2.11-1.17-3.19-1.85s-2.27-1.5-3.44-2.36a73,73,0,0,1-6.74-5.48,62.45,62.45,0,0,1-5.95-6.25,34.37,34.37,0,0,1-4.3-6.47l-4,2.33a35,35,0,0,0,4.51,6.75,63.16,63.16,0,0,0,6.19,6.4,71,71,0,0,0,7.14,5.67c1.06.74,2.12,1.45,3.15,2.1q2.08,1.31,4.07,2.38l2.55-3,.14-.16Zm0,0c-1-.56-2.11-1.17-3.19-1.85s-2.27-1.5-3.44-2.36a73,73,0,0,1-6.74-5.48,62.45,62.45,0,0,1-5.95-6.25,34.37,34.37,0,0,1-4.3-6.47l-4,2.33a35,35,0,0,0,4.51,6.75,63.16,63.16,0,0,0,6.19,6.4,71,71,0,0,0,7.14,5.67c1.06.74,2.12,1.45,3.15,2.1q2.08,1.31,4.07,2.38l2.55-3,.14-.16Zm-1.19-220.54a58.61,58.61,0,0,1-6.85-9.31l-4,1.64-.33.14c.13.25.25.5.39.74a42.08,42.08,0,0,0,7.23,9.74,58.23,58.23,0,0,0,10.47,8.42l2.77-3.24A44.39,44.39,0,0,1,433.93,460.87Zm0,0a58.61,58.61,0,0,1-6.85-9.31l-4,1.64-.33.14c.13.25.25.5.39.74a42.08,42.08,0,0,0,7.23,9.74,58.23,58.23,0,0,0,10.47,8.42l2.77-3.24A44.39,44.39,0,0,1,433.93,460.87Zm1.19,220.54c-1-.56-2.11-1.17-3.19-1.85s-2.27-1.5-3.44-2.36a73,73,0,0,1-6.74-5.48,62.45,62.45,0,0,1-5.95-6.25,34.37,34.37,0,0,1-4.3-6.47l-4,2.33a35,35,0,0,0,4.51,6.75,63.16,63.16,0,0,0,6.19,6.4,71,71,0,0,0,7.14,5.67c1.06.74,2.12,1.45,3.15,2.1q2.08,1.31,4.07,2.38l2.55-3,.14-.16ZM21.45,25.72V1054.28H966V25.72Zm658,742.47-.66.77.74.47.76,11.42L664.5,799.26l-7.58-4.78-30,35L600.13,812.6l75.93-88.79.45.28,26.39,16.64Zm-108.52,19a78.24,78.24,0,0,1-20.31-6.37q-2.12-1-4.22-2.11l24.13-28.23a39.9,39.9,0,0,0,13.42,3.8,27.59,27.59,0,0,0,8.57-.66,28.94,28.94,0,0,0,4.16-1.31,46.46,46.46,0,0,0,12.91-8,124.33,124.33,0,0,0,14-14.24l0,0h0a73.32,73.32,0,0,1-11.07-4.1l-1.93-.94a96,96,0,0,1-8.76-4.92c-1.14-.73-2.28-1.46-3.39-2.24l22.63-26.46,1.23-1.44,50,31.52L647.85,750a141.35,141.35,0,0,1-21.6,20.88c-1.47,1.12-2.94,2.17-4.41,3.17a81.28,81.28,0,0,1-25.7,12l-1,.25A61,61,0,0,1,570.9,787.18Zm-62.53-32.45,75.93-88.8.22.14,30.6,19.3-27.23,31.84-48.7,57Zm-27.76-29.66c.18,1.33.43,2.72.75,4.14a67.51,67.51,0,0,1-14.29-2.77,55.33,55.33,0,0,1-7-2.69,60,60,0,0,1-6.5-3.56l22.48-26.28a22.38,22.38,0,0,0,5.65.66,20.23,20.23,0,0,0,4.58-.58c.59-.14,1.18-.3,1.79-.49a26.08,26.08,0,0,0,6.85-3.42,35.63,35.63,0,0,0,6.82-6.27l14.52-17-11.07-7,24.31-28.44,14.14,8.92,38,24-24.33,28.44L546.69,686l-.48-.3-14.52,17a33,33,0,0,0-5,7.43,18.8,18.8,0,0,0-1.87,6.58,13.06,13.06,0,0,0,.73,5.52,15.76,15.76,0,0,0,2.67,4.6l-22.48,26.28a77.89,77.89,0,0,1-8.07-5.84,41.7,41.7,0,0,1-6.84-7.15,35.67,35.67,0,0,1-4.84-8.79,31.12,31.12,0,0,1-1.93-10.86l-3.75.63A26.93,26.93,0,0,0,480.61,725.07ZM383,675.65q-20.13-12.71-4.23-31.3l17.11-20,9.5,6,17.33,10.93-3.88,4.54L433.38,655l16.35,10.31,3.88-4.53,26.83,16.91-33,38.61L437,709.7l-27.54-17.36Zm-85-53.59,11.29-13.19-26.93-17L302,569l35.52,22.4,49.06,30.95-19.61,22.93-26.93-17-.08.09-11.2,13.11Zm76.83-88.23-6.46,7.57,28.92,18.24.39-.46,6.08-7.1,27.83,17.54-30.84,36.07-11.7,13.68-76-47.93c-3-1.88-4.56-4-4.65-6.34s1.24-5.12,4-8.37L347,516.28ZM461.4,393.64a10.27,10.27,0,0,0-1.06,3.57,14.4,14.4,0,0,0,.14,4.24,14,14,0,0,0,1.33,4,8.11,8.11,0,0,0,2.37,2.9l3.13-1.34a11.61,11.61,0,0,1-3.86-7.52,9.11,9.11,0,0,1,2.09-6.92l4.16-4.87L482.78,396l20.43,12.89L497,416.1l9.37,5.91-20.32,23.76-.31.36L433.6,413.22l20.62-24.11Zm77.19,43.68-25.06,29.31,7.58,4.78-6.78,7.93-15,17.59-7.59-4.77-29,34L435.82,509.2l74.71-87.37,1.23-1.44ZM579,462.8l-25.91,30.31L531,518.93c-1.17,1.37-1.59,2.6-1.25,3.71a5.58,5.58,0,0,0,2.6,3c.86.56,2,1.21,3.52,2,.51.26,1,.52,1.57.77,1.06.49,2.19,1,3.38,1.43q2.72,1.05,5.62,2a27.8,27.8,0,0,0,5.45,1.16l.28,0,48.18-56.34.2-.23,29.81,18.81-24.14,28.23,7.59,4.78-9.33,10.91L592,553.72,584.39,549l-29.2,34.16-.76.89L532.8,570.35l-8.2-5.17,3.43-4a49.2,49.2,0,0,1-9.64-1.83,34.59,34.59,0,0,1-5.35-2,41.47,41.47,0,0,1-4.51-2.46l-11.27-7.11A39.47,39.47,0,0,1,486.89,539a14.65,14.65,0,0,1-3.29-9,20.06,20.06,0,0,1,2.83-9.77,70.47,70.47,0,0,1,8-11.18l55.32-64.68.09.06ZM446,578.7l40.76,25.71-20.81,24.34a46.28,46.28,0,0,1-9.14-2.61c-1.1-.43-2.15-.88-3.14-1.34a38.59,38.59,0,0,1-4.22-2.28l-.58-.37-.3-.2-2.77,3.24q1.56.88,3.39,1.8c.73.37,1.48.73,2.27,1.11l.43.2q3,1.38,6.19,2.56a59.52,59.52,0,0,0,6.83,2.06,37.85,37.85,0,0,0,6.31,1L456.6,651q-7.46-1.35-18.87-6.4c-.83-.36-1.66-.74-2.52-1.14a217.59,217.59,0,0,1-23.76-13.27q-6.79-4.27-7.49-9.38t5.49-12.34L420,596.11a44.8,44.8,0,0,0,5.06,2.76,50.09,50.09,0,0,0,6.08,2.35,54,54,0,0,0,12.09,2.38l2.77-3.24A55.86,55.86,0,0,1,433.91,598a48.33,48.33,0,0,1-6-2.34,44,44,0,0,1-5.1-2.78l16-18.71Zm30.74,55c-1.44-.35-2.85-.77-4.22-1.25s-2.8-1-4.24-1.42l16.37-19.14c1.25.57,2.54,1.13,3.86,1.67s2.69,1.07,4.14,1.54l3.89-4.54.44.28,26.38,16.64-23.47,27.44-17.13,20-26.83-16.92Zm-35.5-207.55a32.47,32.47,0,0,1,12.5,3.14,40.66,40.66,0,0,1,4.63,2.54q12.78,8,13.14,20t-12.78,27.32a70.51,70.51,0,0,1-13.18,12.26,39.5,39.5,0,0,1-13.16,6.17l-.3.07a33.41,33.41,0,0,1-6,.85,32.22,32.22,0,0,1-15.28-3.15,41.53,41.53,0,0,1-4.63-2.54q-12.76-8-13.07-20t12.63-27.07a68.19,68.19,0,0,1,15.93-14.15,37.64,37.64,0,0,1,10.56-4.53l.41-.09A31.34,31.34,0,0,1,441.23,426.17ZM702.89,582.74l-.55.64L647.78,549l-3.33,3.89L699,587.28l-23.77,27.79-26.94-17-.91,1.06-3.62,4.24,26.93,17-20.53,24-3.92-2.47L565.6,591l20.52-24,26.94,17,4.53-5.3-14.37-9.07q-6-3.76-6.22-9.4t5.31-12.15l39.22-45.86L700,539.12l26.1,16.47ZM423.11,453.2l-.33.14c.13.25.25.5.39.74a42.08,42.08,0,0,0,7.23,9.74,58.23,58.23,0,0,0,10.47,8.42l2.77-3.24a44.39,44.39,0,0,1-9.71-8.13,58.61,58.61,0,0,1-6.85-9.31Zm8.82,226.36c-1.13-.72-2.27-1.5-3.44-2.36a73,73,0,0,1-6.74-5.48,62.45,62.45,0,0,1-5.95-6.25,34.37,34.37,0,0,1-4.3-6.47l-4,2.33a35,35,0,0,0,4.51,6.75,63.16,63.16,0,0,0,6.19,6.4,71,71,0,0,0,7.14,5.67c1.06.74,2.12,1.45,3.15,2.1q2.08,1.31,4.07,2.38l2.55-3,.14-.16-.15-.08C434.08,680.85,433,680.24,431.93,679.56Zm3.19,1.85c-1-.56-2.11-1.17-3.19-1.85s-2.27-1.5-3.44-2.36a73,73,0,0,1-6.74-5.48,62.45,62.45,0,0,1-5.95-6.25,34.37,34.37,0,0,1-4.3-6.47l-4,2.33a35,35,0,0,0,4.51,6.75,63.16,63.16,0,0,0,6.19,6.4,71,71,0,0,0,7.14,5.67c1.06.74,2.12,1.45,3.15,2.1q2.08,1.31,4.07,2.38l2.55-3,.14-.16Zm-1.19-220.54a58.61,58.61,0,0,1-6.85-9.31l-4,1.64-.33.14c.13.25.25.5.39.74a42.08,42.08,0,0,0,7.23,9.74,58.23,58.23,0,0,0,10.47,8.42l2.77-3.24A44.39,44.39,0,0,1,433.93,460.87Zm0,0a58.61,58.61,0,0,1-6.85-9.31l-4,1.64-.33.14c.13.25.25.5.39.74a42.08,42.08,0,0,0,7.23,9.74,58.23,58.23,0,0,0,10.47,8.42l2.77-3.24A44.39,44.39,0,0,1,433.93,460.87Zm1.19,220.54c-1-.56-2.11-1.17-3.19-1.85s-2.27-1.5-3.44-2.36a73,73,0,0,1-6.74-5.48,62.45,62.45,0,0,1-5.95-6.25,34.37,34.37,0,0,1-4.3-6.47l-4,2.33a35,35,0,0,0,4.51,6.75,63.16,63.16,0,0,0,6.19,6.4,71,71,0,0,0,7.14,5.67c1.06.74,2.12,1.45,3.15,2.1q2.08,1.31,4.07,2.38l2.55-3,.14-.16Zm0,0c-1-.56-2.11-1.17-3.19-1.85s-2.27-1.5-3.44-2.36a73,73,0,0,1-6.74-5.48,62.45,62.45,0,0,1-5.95-6.25,34.37,34.37,0,0,1-4.3-6.47l-4,2.33a35,35,0,0,0,4.51,6.75,63.16,63.16,0,0,0,6.19,6.4,71,71,0,0,0,7.14,5.67c1.06.74,2.12,1.45,3.15,2.1q2.08,1.31,4.07,2.38l2.55-3,.14-.16Zm-1.19-220.54a58.61,58.61,0,0,1-6.85-9.31l-4,1.64-.33.14c.13.25.25.5.39.74a42.08,42.08,0,0,0,7.23,9.74,58.23,58.23,0,0,0,10.47,8.42l2.77-3.24A44.39,44.39,0,0,1,433.93,460.87Zm0,0a58.61,58.61,0,0,1-6.85-9.31l-4,1.64-.33.14c.13.25.25.5.39.74a42.08,42.08,0,0,0,7.23,9.74,58.23,58.23,0,0,0,10.47,8.42l2.77-3.24A44.39,44.39,0,0,1,433.93,460.87Zm1.19,220.54c-1-.56-2.11-1.17-3.19-1.85s-2.27-1.5-3.44-2.36a73,73,0,0,1-6.74-5.48,62.45,62.45,0,0,1-5.95-6.25,34.37,34.37,0,0,1-4.3-6.47l-4,2.33a35,35,0,0,0,4.51,6.75,63.16,63.16,0,0,0,6.19,6.4,71,71,0,0,0,7.14,5.67c1.06.74,2.12,1.45,3.15,2.1q2.08,1.31,4.07,2.38l2.55-3,.14-.16Zm0,0c-1-.56-2.11-1.17-3.19-1.85s-2.27-1.5-3.44-2.36a73,73,0,0,1-6.74-5.48,62.45,62.45,0,0,1-5.95-6.25,34.37,34.37,0,0,1-4.3-6.47l-4,2.33a35,35,0,0,0,4.51,6.75,63.16,63.16,0,0,0,6.19,6.4,71,71,0,0,0,7.14,5.67c1.06.74,2.12,1.45,3.15,2.1q2.08,1.31,4.07,2.38l2.55-3,.14-.16Zm-1.19-220.54a58.61,58.61,0,0,1-6.85-9.31l-4,1.64-.33.14c.13.25.25.5.39.74a42.08,42.08,0,0,0,7.23,9.74,58.23,58.23,0,0,0,10.47,8.42l2.77-3.24A44.39,44.39,0,0,1,433.93,460.87Zm0,0a58.61,58.61,0,0,1-6.85-9.31l-4,1.64-.33.14c.13.25.25.5.39.74a42.08,42.08,0,0,0,7.23,9.74,58.23,58.23,0,0,0,10.47,8.42l2.77-3.24A44.39,44.39,0,0,1,433.93,460.87Zm1.19,220.54c-1-.56-2.11-1.17-3.19-1.85s-2.27-1.5-3.44-2.36a73,73,0,0,1-6.74-5.48,62.45,62.45,0,0,1-5.95-6.25,34.37,34.37,0,0,1-4.3-6.47l-4,2.33a35,35,0,0,0,4.51,6.75,63.16,63.16,0,0,0,6.19,6.4,71,71,0,0,0,7.14,5.67c1.06.74,2.12,1.45,3.15,2.1q2.08,1.31,4.07,2.38l2.55-3,.14-.16Zm0,0c-1-.56-2.11-1.17-3.19-1.85s-2.27-1.5-3.44-2.36a73,73,0,0,1-6.74-5.48,62.45,62.45,0,0,1-5.95-6.25,34.37,34.37,0,0,1-4.3-6.47l-4,2.33a35,35,0,0,0,4.51,6.75,63.16,63.16,0,0,0,6.19,6.4,71,71,0,0,0,7.14,5.67c1.06.74,2.12,1.45,3.15,2.1q2.08,1.31,4.07,2.38l2.55-3,.14-.16Zm-1.19-220.54a58.61,58.61,0,0,1-6.85-9.31l-4,1.64-.33.14c.13.25.25.5.39.74a42.08,42.08,0,0,0,7.23,9.74,58.23,58.23,0,0,0,10.47,8.42l2.77-3.24A44.39,44.39,0,0,1,433.93,460.87Zm0,0a58.61,58.61,0,0,1-6.85-9.31l-4,1.64-.33.14c.13.25.25.5.39.74a42.08,42.08,0,0,0,7.23,9.74,58.23,58.23,0,0,0,10.47,8.42l2.77-3.24A44.39,44.39,0,0,1,433.93,460.87Zm1.19,220.54c-1-.56-2.11-1.17-3.19-1.85s-2.27-1.5-3.44-2.36a73,73,0,0,1-6.74-5.48,62.45,62.45,0,0,1-5.95-6.25,34.37,34.37,0,0,1-4.3-6.47l-4,2.33a35,35,0,0,0,4.51,6.75,63.16,63.16,0,0,0,6.19,6.4,71,71,0,0,0,7.14,5.67c1.06.74,2.12,1.45,3.15,2.1q2.08,1.31,4.07,2.38l2.55-3,.14-.16Zm0,0c-1-.56-2.11-1.17-3.19-1.85s-2.27-1.5-3.44-2.36a73,73,0,0,1-6.74-5.48,62.45,62.45,0,0,1-5.95-6.25,34.37,34.37,0,0,1-4.3-6.47l-4,2.33a35,35,0,0,0,4.51,6.75,63.16,63.16,0,0,0,6.19,6.4,71,71,0,0,0,7.14,5.67c1.06.74,2.12,1.45,3.15,2.1q2.08,1.31,4.07,2.38l2.55-3,.14-.16Zm-1.19-220.54a58.61,58.61,0,0,1-6.85-9.31l-4,1.64-.33.14c.13.25.25.5.39.74a42.08,42.08,0,0,0,7.23,9.74,58.23,58.23,0,0,0,10.47,8.42l2.77-3.24A44.39,44.39,0,0,1,433.93,460.87Zm0,0a58.61,58.61,0,0,1-6.85-9.31l-4,1.64-.33.14c.13.25.25.5.39.74a42.08,42.08,0,0,0,7.23,9.74,58.23,58.23,0,0,0,10.47,8.42l2.77-3.24A44.39,44.39,0,0,1,433.93,460.87Zm1.19,220.54c-1-.56-2.11-1.17-3.19-1.85s-2.27-1.5-3.44-2.36a73,73,0,0,1-6.74-5.48,62.45,62.45,0,0,1-5.95-6.25,34.37,34.37,0,0,1-4.3-6.47l-4,2.33a35,35,0,0,0,4.51,6.75,63.16,63.16,0,0,0,6.19,6.4,71,71,0,0,0,7.14,5.67c1.06.74,2.12,1.45,3.15,2.1q2.08,1.31,4.07,2.38l2.55-3,.14-.16Zm0,0c-1-.56-2.11-1.17-3.19-1.85s-2.27-1.5-3.44-2.36a73,73,0,0,1-6.74-5.48,62.45,62.45,0,0,1-5.95-6.25,34.37,34.37,0,0,1-4.3-6.47l-4,2.33a35,35,0,0,0,4.51,6.75,63.16,63.16,0,0,0,6.19,6.4,71,71,0,0,0,7.14,5.67c1.06.74,2.12,1.45,3.15,2.1q2.08,1.31,4.07,2.38l2.55-3,.14-.16Zm-1.19-220.54a58.61,58.61,0,0,1-6.85-9.31l-4,1.64-.33.14c.13.25.25.5.39.74a42.08,42.08,0,0,0,7.23,9.74,58.23,58.23,0,0,0,10.47,8.42l2.77-3.24A44.39,44.39,0,0,1,433.93,460.87Zm0,0a58.61,58.61,0,0,1-6.85-9.31l-4,1.64-.33.14c.13.25.25.5.39.74a42.08,42.08,0,0,0,7.23,9.74,58.23,58.23,0,0,0,10.47,8.42l2.77-3.24A44.39,44.39,0,0,1,433.93,460.87Zm1.19,220.54c-1-.56-2.11-1.17-3.19-1.85s-2.27-1.5-3.44-2.36a73,73,0,0,1-6.74-5.48,62.45,62.45,0,0,1-5.95-6.25,34.37,34.37,0,0,1-4.3-6.47l-4,2.33a35,35,0,0,0,4.51,6.75,63.16,63.16,0,0,0,6.19,6.4,71,71,0,0,0,7.14,5.67c1.06.74,2.12,1.45,3.15,2.1q2.08,1.31,4.07,2.38l2.55-3,.14-.16Zm0,0c-1-.56-2.11-1.17-3.19-1.85s-2.27-1.5-3.44-2.36a73,73,0,0,1-6.74-5.48,62.45,62.45,0,0,1-5.95-6.25,34.37,34.37,0,0,1-4.3-6.47l-4,2.33a35,35,0,0,0,4.51,6.75,63.16,63.16,0,0,0,6.19,6.4,71,71,0,0,0,7.14,5.67c1.06.74,2.12,1.45,3.15,2.1q2.08,1.31,4.07,2.38l2.55-3,.14-.16Zm0,0c-1-.56-2.11-1.17-3.19-1.85s-2.27-1.5-3.44-2.36a73,73,0,0,1-6.74-5.48,62.45,62.45,0,0,1-5.95-6.25,34.37,34.37,0,0,1-4.3-6.47l-4,2.33a35,35,0,0,0,4.51,6.75,63.16,63.16,0,0,0,6.19,6.4,71,71,0,0,0,7.14,5.67c1.06.74,2.12,1.45,3.15,2.1q2.08,1.31,4.07,2.38l2.55-3,.14-.16Zm0,0c-1-.56-2.11-1.17-3.19-1.85s-2.27-1.5-3.44-2.36a73,73,0,0,1-6.74-5.48,62.45,62.45,0,0,1-5.95-6.25,34.37,34.37,0,0,1-4.3-6.47l-4,2.33a35,35,0,0,0,4.51,6.75,63.16,63.16,0,0,0,6.19,6.4,71,71,0,0,0,7.14,5.67c1.06.74,2.12,1.45,3.15,2.1q2.08,1.31,4.07,2.38l2.55-3,.14-.16Zm0,0c-1-.56-2.11-1.17-3.19-1.85s-2.27-1.5-3.44-2.36a73,73,0,0,1-6.74-5.48,62.45,62.45,0,0,1-5.95-6.25,34.37,34.37,0,0,1-4.3-6.47l-4,2.33a35,35,0,0,0,4.51,6.75,63.16,63.16,0,0,0,6.19,6.4,71,71,0,0,0,7.14,5.67c1.06.74,2.12,1.45,3.15,2.1q2.08,1.31,4.07,2.38l2.55-3,.14-.16Zm0,0c-1-.56-2.11-1.17-3.19-1.85s-2.27-1.5-3.44-2.36a73,73,0,0,1-6.74-5.48,62.45,62.45,0,0,1-5.95-6.25,34.37,34.37,0,0,1-4.3-6.47l-4,2.33a35,35,0,0,0,4.51,6.75,63.16,63.16,0,0,0,6.19,6.4,71,71,0,0,0,7.14,5.67c1.06.74,2.12,1.45,3.15,2.1q2.08,1.31,4.07,2.38l2.55-3,.14-.16Zm0,0c-1-.56-2.11-1.17-3.19-1.85s-2.27-1.5-3.44-2.36a73,73,0,0,1-6.74-5.48,62.45,62.45,0,0,1-5.95-6.25,34.37,34.37,0,0,1-4.3-6.47l-4,2.33a35,35,0,0,0,4.51,6.75,63.16,63.16,0,0,0,6.19,6.4,71,71,0,0,0,7.14,5.67c1.06.74,2.12,1.45,3.15,2.1q2.08,1.31,4.07,2.38l2.55-3,.14-.16Zm0,0c-1-.56-2.11-1.17-3.19-1.85s-2.27-1.5-3.44-2.36a73,73,0,0,1-6.74-5.48,62.45,62.45,0,0,1-5.95-6.25,34.37,34.37,0,0,1-4.3-6.47l-4,2.33a35,35,0,0,0,4.51,6.75,63.16,63.16,0,0,0,6.19,6.4,71,71,0,0,0,7.14,5.67c1.06.74,2.12,1.45,3.15,2.1q2.08,1.31,4.07,2.38l2.55-3,.14-.16Zm0,0c-1-.56-2.11-1.17-3.19-1.85s-2.27-1.5-3.44-2.36a73,73,0,0,1-6.74-5.48,62.45,62.45,0,0,1-5.95-6.25,34.37,34.37,0,0,1-4.3-6.47l-4,2.33a35,35,0,0,0,4.51,6.75,63.16,63.16,0,0,0,6.19,6.4,71,71,0,0,0,7.14,5.67c1.06.74,2.12,1.45,3.15,2.1q2.08,1.31,4.07,2.38l2.55-3,.14-.16Zm0,0c-1-.56-2.11-1.17-3.19-1.85s-2.27-1.5-3.44-2.36a73,73,0,0,1-6.74-5.48,62.45,62.45,0,0,1-5.95-6.25,34.37,34.37,0,0,1-4.3-6.47l-4,2.33a35,35,0,0,0,4.51,6.75,63.16,63.16,0,0,0,6.19,6.4,71,71,0,0,0,7.14,5.67c1.06.74,2.12,1.45,3.15,2.1q2.08,1.31,4.07,2.38l2.55-3,.14-.16Zm0,0c-1-.56-2.11-1.17-3.19-1.85s-2.27-1.5-3.44-2.36a73,73,0,0,1-6.74-5.48,62.45,62.45,0,0,1-5.95-6.25,34.37,34.37,0,0,1-4.3-6.47l-4,2.33a35,35,0,0,0,4.51,6.75,63.16,63.16,0,0,0,6.19,6.4,71,71,0,0,0,7.14,5.67c1.06.74,2.12,1.45,3.15,2.1q2.08,1.31,4.07,2.38l2.55-3,.14-.16Z"/><g class="cls-4"><path class="cls-5" d="M384.54,783l.51-.6,23.63-27.63L382.13,738l-.63-.4-76.19,89.11,27.17,17.13,30-35,7.58,4.77L385.89,795l6.23-7.29-7-4.41Zm7.28,4.82-5.95,7L370,813.3l-7.58-4.77-30,35-26.83-16.91,75.93-88.8.61.38,26.22,16.55L385,782.07l-.79.93.89.56Z"/><polygon class="cls-6" points="385.87 794.74 369.99 813.3 362.41 808.53 332.44 843.56 305.61 826.65 381.54 737.85 382.15 738.23 385.03 782.07 384.24 783 385.13 783.56 385.87 794.74"/><polygon class="cls-7" points="391.82 787.78 385.87 794.74 385.13 783.56 391.82 787.78"/><polygon class="cls-8" points="408.37 754.78 385.03 782.07 382.15 738.23 408.37 754.78"/><path class="cls-5" d="M363.07,727.16a24,24,0,0,0-8.85-9.28A31,31,0,0,0,350.8,716a28.75,28.75,0,0,0-9.47-2.58c-.75-.07-1.51-.1-2.27-.1a29,29,0,0,0-6.59.8,39.27,39.27,0,0,0-6,2c-1.15.48-2.32,1-3.51,1.63A80.73,80.73,0,0,0,309.08,727q-2.24,1.82-4.57,4a184.94,184.94,0,0,0-15.8,16.54A153.67,153.67,0,0,0,272,770.36c-3.77,6.6-6.1,12.49-7,17.5s-.37,9.4,1.48,13a23.84,23.84,0,0,0,8.82,9.25,31.42,31.42,0,0,0,3.45,1.89,29.1,29.1,0,0,0,9.49,2.59,22.82,22.82,0,0,0,2.35.12,29.19,29.19,0,0,0,6.61-.81,38.87,38.87,0,0,0,6-2,50.43,50.43,0,0,0,6.44-3.24,87.52,87.52,0,0,0,10.9-7.68c2.38-1.94,4.85-4.13,7.4-6.6,4.13-4,8.46-8.62,13-13.89a152.59,152.59,0,0,0,16.68-22.83c3.76-6.61,6.1-12.5,7-17.5S365,730.79,363.07,727.16Zm1.35,13q-1.29,7.53-6.94,17.44t-16.65,22.8Q334.1,788.31,328,794.2c-2.58,2.5-5.09,4.73-7.5,6.7a87.88,87.88,0,0,1-10.8,7.62,51.37,51.37,0,0,1-6.5,3.27,40,40,0,0,1-5.95,2,27.61,27.61,0,0,1-8.89.69,29.06,29.06,0,0,1-9.43-2.58A30.93,30.93,0,0,1,275.5,810a23.6,23.6,0,0,1-8.75-9.17c-1.83-3.59-2.33-7.9-1.46-12.91s3.15-10.82,6.92-17.44,9.32-14.21,16.65-22.79a186.61,186.61,0,0,1,15.67-16.42q2.39-2.19,4.68-4A80.06,80.06,0,0,1,323,718c1.21-.62,2.4-1.17,3.56-1.66a40.83,40.83,0,0,1,6-2,27.29,27.29,0,0,1,8.79-.69,28.33,28.33,0,0,1,9.4,2.56,32.11,32.11,0,0,1,3.4,1.85,24,24,0,0,1,8.79,9.21Q365.69,732.68,364.42,740.19Zm-47.33,21.59a58.79,58.79,0,0,1-6.86-9.3l-4.17,1.73-.12,0c.05.09.09.18.15.27a42.15,42.15,0,0,0,7.48,10.21A58.18,58.18,0,0,0,324,773.16l2.4-2.81.37-.44-.42-.27A44.06,44.06,0,0,1,317.09,761.78Zm9.3,8.11.1.07-.09.11L324,772.9a58.43,58.43,0,0,1-10.27-8.3,42.27,42.27,0,0,1-7.49-10.24l3.93-1.63a60,60,0,0,0,6.79,9.19,44.64,44.64,0,0,0,9.44,8Z"/><path class="cls-8" d="M364.42,740.19q-1.29,7.53-6.94,17.44t-16.65,22.8Q334.1,788.31,328,794.2l-1.57-23.85.37-.44-.42-.27L323,718c1.21-.62,2.4-1.17,3.56-1.66a40.83,40.83,0,0,1,6-2,27.29,27.29,0,0,1,8.79-.69,28.33,28.33,0,0,1,9.4,2.56,32.11,32.11,0,0,1,3.4,1.85,24,24,0,0,1,8.79,9.21Q365.69,732.68,364.42,740.19Z"/><path class="cls-7" d="M328,794.2c-2.58,2.5-5.09,4.73-7.5,6.7a87.88,87.88,0,0,1-10.8,7.62l-3.6-54a42.15,42.15,0,0,0,7.48,10.21A58.18,58.18,0,0,0,324,773.16l2.4-2.81Z"/><path class="cls-6" d="M326.37,769.64a44.06,44.06,0,0,1-9.28-7.86,58.79,58.79,0,0,1-6.86-9.3l-4.17,1.73-1.53-23q2.39-2.19,4.68-4A80.06,80.06,0,0,1,323,718Z"/><path class="cls-6" d="M309.69,808.52a51.37,51.37,0,0,1-6.5,3.27,40,40,0,0,1-5.95,2,27.61,27.61,0,0,1-8.89.69,29.06,29.06,0,0,1-9.43-2.58A30.93,30.93,0,0,1,275.5,810a23.6,23.6,0,0,1-8.75-9.17c-1.83-3.59-2.33-7.9-1.46-12.91s3.15-10.82,6.92-17.44,9.32-14.21,16.65-22.79a186.61,186.61,0,0,1,15.67-16.42l1.53,23-.12,0c.05.09.09.18.15.27Z"/><path class="cls-5" d="M311.47,703.23l5.45-6.38-6.35-4-20.84-13.13-3.5,4.09L254.43,721l27.17,17.15,7.63-8.93.14-.17,7.58,4.78,15.16-17.72L319,708Zm-14.56,30.35-7.58-4.78-.12.14-7.65,8.95L254.73,721l31.52-36.86,3.52-4.12,20.82,13.12,6,3.8-5.36,6.28h0l-.09.09.1.06.82,12.5Z"/><polygon class="cls-6" points="289.21 728.94 281.56 737.89 254.73 720.96 286.25 684.1 289.21 728.94"/><polygon class="cls-6" points="312.09 715.84 296.91 733.58 289.33 728.8 289.21 728.94 286.25 684.1 289.77 679.98 310.59 693.1 311.26 703.18 311.26 703.19 311.17 703.28 311.27 703.34 312.09 715.84"/><polygon class="cls-8" points="316.62 696.9 311.26 703.18 310.59 693.1 316.62 696.9"/><polygon class="cls-7" points="318.74 708.07 312.09 715.84 311.27 703.34 318.74 708.07"/><path class="cls-5" d="M243.72,757.65v.06l0,0Zm34.87-9.88L265,739.21l4.81-5.63-27.26-17.19-1.45,1.69L237.75,722l-13.57-8.55-2,2.28-12.83,15,5.78,3.65a19,19,0,0,0-2.85.46,16.41,16.41,0,0,0-8.88,5.36c-4.21,4.94-5.48,10.19-3.79,15.63s7.07,11,16,16.62a72.75,72.75,0,0,0,8,4.4c.93.43,1.84.83,2.74,1.18a32,32,0,0,0,11.73,2.55h.78a24.24,24.24,0,0,0,4.68-.61c.56-.13,1.11-.29,1.64-.46a21.6,21.6,0,0,0,9.86-6.7,12.44,12.44,0,0,0,3-11.41l5.81,3.66ZM257.68,761a12.23,12.23,0,0,1-2.8,11.72,21.44,21.44,0,0,1-9.73,6.63c-.54.17-1.1.33-1.66.46a23.93,23.93,0,0,1-4.64.61,31,31,0,0,1-12.53-2.56q-1.29-.51-2.64-1.14a73.16,73.16,0,0,1-7.94-4.38q-13.37-8.43-15.89-16.52t3.75-15.44a16.14,16.14,0,0,1,8.77-5.3,21.61,21.61,0,0,1,3.43-.5l-6.1-3.85L222.25,716l2-2.3,13.57,8.56,3.35-3.91,1.47-1.72,26.92,17-4.81,5.63,13.57,8.56-14.52,17Zm-22.82-10.4a69.48,69.48,0,0,1-7-8.42l-3.74,2.19-.23.13.26.36a59,59,0,0,0,17,15.88l2.56-3,0,0,0,0A49.47,49.47,0,0,1,234.86,750.56Zm6.27,9.88a59.22,59.22,0,0,1-16.95-15.91l3.62-2.12a72,72,0,0,0,6.91,8.29,49.36,49.36,0,0,0,8.75,7Z"/><path class="cls-6" d="M226.32,777.82q-1.29-.51-2.64-1.14a73.16,73.16,0,0,1-7.94-4.38q-13.37-8.43-15.89-16.52t3.75-15.44a16.14,16.14,0,0,1,8.77-5.3,21.61,21.61,0,0,1,3.43-.5l-6.1-3.85L222.25,716l1.87,28.31-.23.13.26.36Z"/><path class="cls-7" d="M245.15,779.31c-.54.17-1.1.33-1.66.46a23.93,23.93,0,0,1-4.64.61,31,31,0,0,1-12.53-2.56l-2.17-33a59,59,0,0,0,17,15.88l2.56-3Z"/><path class="cls-6" d="M243.72,757.65a49.47,49.47,0,0,1-8.86-7.09,69.48,69.48,0,0,1-7-8.42l-3.74,2.19L222.25,716l2-2.3,13.57,8.56,3.35-3.91Z"/><path class="cls-8" d="M263.77,764.8,257.68,761a12.23,12.23,0,0,1-2.8,11.72,21.44,21.44,0,0,1-9.73,6.63l-1.42-21.6,0,0,0,0-2.58-39.28,1.47-1.72,26.92,17-4.81,5.63,13.57,8.56Z"/><path class="cls-5" d="M203.63,733c-.33-.13-.64-.26-.94-.4a16.78,16.78,0,0,1-1.76-1,3,3,0,0,1-1.52-2c-.14-.94.34-2,1.42-3.32l17.82-20.84-21.88-13.8-21.3,24.91c-4.82,5.64-7.21,11.08-7.09,16.17s3.27,9.66,9.36,13.5a61.92,61.92,0,0,0,6.77,3.68c2.36,1.11,4.46,2,6.25,2.69l.13,0,9.19-10.76,6.63-7.75-.28-.09C205.62,733.77,204.7,733.41,203.63,733Zm-3.57,8.67-9.23,10.8c-1.78-.68-3.85-1.57-6.23-2.68a61.27,61.27,0,0,1-6.76-3.67q-9.08-5.73-9.26-13.33t7-16l21.17-24.76,0,0,21.53,13.59-17.66,20.66a5.87,5.87,0,0,0-1.46,2.69,2.56,2.56,0,0,0,.08,1.14,3.37,3.37,0,0,0,1.53,1.76,16.35,16.35,0,0,0,1.78,1c.3.14.61.28.94.41,1,.43,1.95.8,2.82,1.1Z"/><path class="cls-6" d="M200.06,741.62l-9.23,10.8c-1.78-.68-3.85-1.57-6.23-2.68a61.27,61.27,0,0,1-6.76-3.67q-9.08-5.73-9.26-13.33t7-16l21.17-24.76,2.43,36.92a2.56,2.56,0,0,0,.08,1.14Z"/><path class="cls-7" d="M206.37,734.24l-6.31,7.38L199.3,730a3.37,3.37,0,0,0,1.53,1.76,16.35,16.35,0,0,0,1.78,1c.3.14.61.28.94.41C204.57,733.57,205.5,733.94,206.37,734.24Z"/><path class="cls-8" d="M218.34,705.51l-17.66,20.66a5.87,5.87,0,0,0-1.46,2.69l-2.43-36.92,0,0Z"/><path class="cls-5" d="M277.81,679.18c-.88-6.86-5.88-13.21-14.87-18.86a53.91,53.91,0,0,0-6-3.31,40.82,40.82,0,0,0-5.35-2.07,31.54,31.54,0,0,0-9.3-1.47,28.18,28.18,0,0,0-4.6.38c-.69.12-1.36.26-2,.42-1,.23-1.92.5-2.85.82A35.73,35.73,0,0,0,217,666.18c-5.87,6.86-8.4,13.81-7.52,20.66s5.83,13.18,14.75,18.8a55,55,0,0,0,6.12,3.36,41.57,41.57,0,0,0,6.13,2.3,30.83,30.83,0,0,0,8.54,1.26,26.88,26.88,0,0,0,4.58-.39c.69-.11,1.37-.25,2-.41a29.67,29.67,0,0,0,3.59-1.08,36.3,36.3,0,0,0,15-10.83C276.16,693,278.69,686,277.81,679.18Zm-7.68,20.54a35.91,35.91,0,0,1-14.88,10.75,29.79,29.79,0,0,1-3.63,1.09c-.67.16-1.35.3-2,.41a29.17,29.17,0,0,1-13.1-.87,41.6,41.6,0,0,1-6-2.28,54.56,54.56,0,0,1-6.09-3.35Q211,697.06,209.7,686.82t7.47-20.51a35.51,35.51,0,0,1,15.64-11c.94-.32,1.9-.59,2.87-.82.68-.15,1.35-.29,2-.41a29.64,29.64,0,0,1,13.87,1.09,41.58,41.58,0,0,1,5.26,2.05,56,56,0,0,1,6,3.29q13.47,8.49,14.77,18.73T270.13,699.72ZM245,682.35a70.16,70.16,0,0,1-7-8.41l-3.8,2.21-.18.11.21.3a57.59,57.59,0,0,0,17,16l2.66-3.12,0,0h0A49,49,0,0,1,245,682.35Zm6.18,10a57.77,57.77,0,0,1-16.87-16l3.63-2.12a71.44,71.44,0,0,0,6.92,8.28,48.73,48.73,0,0,0,8.74,7Z"/><path class="cls-8" d="M270.13,699.72a35.91,35.91,0,0,1-14.88,10.75l-1.39-21,0,0h0l-2.27-34.31a41.58,41.58,0,0,1,5.26,2.05,56,56,0,0,1,6,3.29q13.47,8.49,14.77,18.73T270.13,699.72Z"/><path class="cls-7" d="M255.25,710.47a29.79,29.79,0,0,1-3.63,1.09c-.67.16-1.35.3-2,.41a29.17,29.17,0,0,1-13.1-.87l-2.28-34.54a57.59,57.59,0,0,0,17,16l2.66-3.12Z"/><path class="cls-6" d="M253.86,689.45a49,49,0,0,1-8.88-7.1,70.16,70.16,0,0,1-7-8.41l-3.8,2.21-1.37-20.87c.94-.32,1.9-.59,2.87-.82.68-.15,1.35-.29,2-.41a29.64,29.64,0,0,1,13.87,1.09Z"/><path class="cls-6" d="M236.49,711.1a41.6,41.6,0,0,1-6-2.28,54.56,54.56,0,0,1-6.09-3.35Q211,697.06,209.7,686.82t7.47-20.51a35.51,35.51,0,0,1,15.64-11l1.37,20.87-.18.11.21.3Z"/></g><path class="cls-9" d="M538.9,437.27l-27.18-17.14-1.21,1.41-75,87.7,27.18,17.14,29-34,7.59,4.78,15-17.58,7.06-8.26-7.57-4.78Zm-17.79,34.14-6.78,7.93-15,17.59-7.59-4.77-29,34L435.82,509.2l74.71-87.37,1.23-1.44,26.83,16.93-25.06,29.31Z"/><polygon class="cls-10" points="514.33 479.34 499.29 496.93 491.7 492.16 462.66 526.12 435.82 509.2 510.53 421.83 514.33 479.34"/><polygon class="cls-10" points="513.53 466.63 521.11 471.41 514.33 479.34 510.53 421.83 511.76 420.39 538.59 437.32 513.53 466.63"/><path class="cls-9" d="M367.11,570.16a82.31,82.31,0,0,1-9.3-9.95l-3.88,2.56a62.24,62.24,0,0,0,9.8,10.43,100.26,100.26,0,0,0,11.39,8.42l2.78-3.24A76.31,76.31,0,0,1,367.11,570.16Zm8,11.19A99.5,99.5,0,0,1,363.86,573a61.69,61.69,0,0,1-9.64-10.22l3.54-2.34a83.08,83.08,0,0,0,9.22,9.83,76,76,0,0,0,10.61,8.11Zm-8-11.19a82.31,82.31,0,0,1-9.3-9.95l-3.88,2.56a62.24,62.24,0,0,0,9.8,10.43,100.26,100.26,0,0,0,11.39,8.42l2.78-3.24A76.31,76.31,0,0,1,367.11,570.16Zm8,11.19A99.5,99.5,0,0,1,363.86,573a61.69,61.69,0,0,1-9.64-10.22l3.54-2.34a83.08,83.08,0,0,0,9.22,9.83,76,76,0,0,0,10.61,8.11Zm28.64-29.54-6.06,7.09-.41.48-28.58-18,6.47-7.56L347,516,312.26,556.6c-2.83,3.32-4.16,6.11-4.06,8.51s1.69,4.58,4.74,6.5l76.15,48L400.77,606l31.12-36.4Zm-3,53.88-11.7,13.68-76-47.93c-3-1.88-4.56-4-4.65-6.34s1.24-5.12,4-8.37L347,516.28l27.82,17.55-6.46,7.57,28.92,18.24.39-.46,6.08-7.1,27.83,17.54Zm-42.94-45.48-3.88,2.56a62.24,62.24,0,0,0,9.8,10.43,100.26,100.26,0,0,0,11.39,8.42l2.78-3.24a76.31,76.31,0,0,1-10.79-8.22A82.31,82.31,0,0,1,357.81,560.21Zm17.27,21.14A99.5,99.5,0,0,1,363.86,573a61.69,61.69,0,0,1-9.64-10.22l3.54-2.34a83.08,83.08,0,0,0,9.22,9.83,76,76,0,0,0,10.61,8.11Z"/><polygon class="cls-10" points="431.59 569.62 400.75 605.69 397.68 559.18 403.76 552.08 431.59 569.62"/><path class="cls-10" d="M397.68,559.18l-.39.46L368.37,541.4l6.46-7.57L347,516.28l-34.6,40.45c-2.77,3.25-4.11,6-4,8.37s1.65,4.46,4.65,6.34l76,47.93,11.7-13.68Zm-22.56,22.44a100.26,100.26,0,0,1-11.39-8.42,62.24,62.24,0,0,1-9.8-10.43l3.88-2.56a82.31,82.31,0,0,0,9.3,9.95,76.31,76.31,0,0,0,10.79,8.22Z"/><path class="cls-9" d="M337.47,591.11l-35.54-22.42-19.87,23.24,26.92,17-11.28,13.2,31.07,19.59L340,628.62l.1-.12,26.93,17,19.87-23.24Zm29.47,54.12-26.93-17-.08.09-11.2,13.11L298,622.06l11.29-13.19-26.93-17L302,569l35.52,22.4,49.06,30.95Z"/><polygon class="cls-10" points="339.93 628.33 328.73 641.44 298 622.06 309.29 608.87 282.36 591.88 301.97 568.95 337.49 591.35 339.93 628.33"/><polygon class="cls-10" points="386.55 622.3 366.94 645.23 340.01 628.24 339.93 628.33 337.49 591.35 386.55 622.3"/><g class="cls-4"><path class="cls-9" d="M622.26,689.64l-1.21,1.42-22.9,26.77.18.13c1,.68,2,1.37,3.39,2.25a98.39,98.39,0,0,0,8.78,4.93l1.93.94a73.26,73.26,0,0,0,10.84,4,120.52,120.52,0,0,1-13.84,14,46.55,46.55,0,0,1-12.85,8,31.23,31.23,0,0,1-4.13,1.3,27.91,27.91,0,0,1-6.33.74q-1.1,0-2.19-.09a39.75,39.75,0,0,1-13.34-3.78l-.14-.07-24.4,28.54.22.12c1.41.75,2.83,1.46,4.23,2.11a78.65,78.65,0,0,0,20.37,6.38,60.33,60.33,0,0,0,9.85.81,62.77,62.77,0,0,0,14.43-1.71l1-.25a81.78,81.78,0,0,0,25.76-12q2.14-1.45,4.31-3.1a143,143,0,0,0,21.75-21l24.57-28.72ZM647.85,750a141.35,141.35,0,0,1-21.6,20.88c-1.47,1.12-2.94,2.17-4.41,3.17a81.28,81.28,0,0,1-25.7,12l-1,.25a61,61,0,0,1-24.19.9,78.24,78.24,0,0,1-20.31-6.37q-2.12-1-4.22-2.11l24.13-28.23a39.9,39.9,0,0,0,13.42,3.8,27.59,27.59,0,0,0,8.57-.66,28.94,28.94,0,0,0,4.16-1.31,46.46,46.46,0,0,0,12.91-8,124.33,124.33,0,0,0,14-14.24l0,0h0a73.32,73.32,0,0,1-11.07-4.1l-1.93-.94a96,96,0,0,1-8.76-4.92c-1.14-.73-2.28-1.46-3.39-2.24l22.63-26.46,1.23-1.44,50,31.52Z"/><path class="cls-10" d="M626.25,770.84c-1.47,1.12-2.94,2.17-4.41,3.17a81.28,81.28,0,0,1-25.7,12l-1,.25a61,61,0,0,1-24.19.9,78.24,78.24,0,0,1-20.31-6.37q-2.12-1-4.22-2.11l24.13-28.23a39.9,39.9,0,0,0,13.42,3.8,27.59,27.59,0,0,0,8.57-.66,28.94,28.94,0,0,0,4.16-1.31,46.46,46.46,0,0,0,12.91-8,124.33,124.33,0,0,0,14-14.24Z"/><path class="cls-10" d="M672.28,721.42,647.85,750a141.35,141.35,0,0,1-21.6,20.88l-2.66-40.78,0,0h0l-2.52-38.66,1.23-1.44Z"/><path class="cls-10" d="M623.59,730a73.32,73.32,0,0,1-11.07-4.1l-1.93-.94a96,96,0,0,1-8.76-4.92c-1.14-.73-2.28-1.46-3.39-2.24l22.63-26.46Z"/><path class="cls-9" d="M584.51,665.83l-.25-.16-76.2,89.11,31.17,19.65,48.68-56.93,27.52-32.18Zm3.38,51.38-48.7,57-30.82-19.44,75.93-88.8.22.14,30.6,19.3Z"/><polygon class="cls-10" points="587.89 717.21 539.19 774.17 508.37 754.73 584.3 665.93 584.52 666.07 587.89 717.21"/><polygon class="cls-10" points="615.12 685.37 587.89 717.21 584.52 666.07 615.12 685.37"/><path class="cls-9" d="M543.66,640.07l-14.17-8.94-24.57,28.75,11.07,7-14.37,16.81a35.42,35.42,0,0,1-6.78,6.23,25.89,25.89,0,0,1-6.8,3.4c-.54.17-1.12.33-1.77.49a20.3,20.3,0,0,1-4.54.57h-.17a21.6,21.6,0,0,1-5.43-.66l-.12,0L453.3,720.24l.19.12a60.47,60.47,0,0,0,6.53,3.57,55.66,55.66,0,0,0,7,2.7,67.88,67.88,0,0,0,14.34,2.78l.27,0-.06-.27c-.31-1.32-.55-2.66-.75-4.12a25.68,25.68,0,0,1-.27-3.79l3.36-.56a31.44,31.44,0,0,0,1.93,10.69,36.16,36.16,0,0,0,4.87,8.84,42.21,42.21,0,0,0,6.88,7.19,77.9,77.9,0,0,0,8.08,5.85l.15.1,22.7-26.55-.11-.13a15.47,15.47,0,0,1-2.63-4.54,12.9,12.9,0,0,1-.72-5.44,19,19,0,0,1,1.85-6.51,33.09,33.09,0,0,1,4.94-7.38L546.25,686l.46.29L557.42,693,582,664.26Zm13.72,52.67L546.69,686l-.48-.3-14.52,17a33,33,0,0,0-5,7.43,18.8,18.8,0,0,0-1.87,6.58,13.06,13.06,0,0,0,.73,5.52,15.76,15.76,0,0,0,2.67,4.6l-22.48,26.28a77.89,77.89,0,0,1-8.07-5.84,41.7,41.7,0,0,1-6.84-7.15,35.67,35.67,0,0,1-4.84-8.79,31.12,31.12,0,0,1-1.93-10.86l-3.75.63a26.93,26.93,0,0,0,.27,4c.18,1.33.43,2.72.75,4.14a67.51,67.51,0,0,1-14.29-2.77,55.33,55.33,0,0,1-7-2.69,60,60,0,0,1-6.5-3.56l22.48-26.28a22.38,22.38,0,0,0,5.65.66,20.23,20.23,0,0,0,4.58-.58c.59-.14,1.18-.3,1.79-.49a26.08,26.08,0,0,0,6.85-3.42,35.63,35.63,0,0,0,6.82-6.27l14.52-17-11.07-7,24.31-28.44,14.14,8.92,38,24Z"/><path class="cls-10" d="M546.69,686l-.48-.3-14.52,17a33,33,0,0,0-5,7.43,18.8,18.8,0,0,0-1.87,6.58,13.06,13.06,0,0,0,.73,5.52,15.76,15.76,0,0,0,2.67,4.6l-22.48,26.28a77.89,77.89,0,0,1-8.07-5.84,41.7,41.7,0,0,1-6.84-7.15,35.67,35.67,0,0,1-4.84-8.79,31.12,31.12,0,0,1-1.93-10.86l-3.75.63a26.93,26.93,0,0,0,.27,4c.18,1.33.43,2.72.75,4.14a67.51,67.51,0,0,1-14.29-2.77,55.33,55.33,0,0,1-7-2.69,60,60,0,0,1-6.5-3.56l22.48-26.28a22.38,22.38,0,0,0,5.65.66,20.23,20.23,0,0,0,4.58-.58c.59-.14,1.18-.3,1.79-.49a26.08,26.08,0,0,0,6.85-3.42,35.63,35.63,0,0,0,6.82-6.27l14.52-17-11.07-7,24.31-28.44,14.14,8.92Z"/><polygon class="cls-10" points="581.71 664.3 557.38 692.74 546.69 686 543.67 640.32 581.71 664.3"/><path class="cls-9" d="M497,610.6l-.47-.29-3.92,4.58c-1.38-.46-2.73-1-4-1.49-1.5-.63-2.73-1.16-3.85-1.68l-.14-.06-16.65,19.49.28.09c1.44.46,2.85.93,4.23,1.42s2.55.83,3.93,1.18L455.62,658.1l27.17,17.14,17.11-20,23.75-27.77Zm2.92,44.34-17.13,20-26.83-16.92,20.81-24.33c-1.44-.35-2.85-.77-4.22-1.25s-2.8-1-4.24-1.42l16.37-19.14c1.25.57,2.54,1.13,3.86,1.67s2.69,1.07,4.14,1.54l3.89-4.54.44.28,26.38,16.64Z"/><path class="cls-10" d="M499.88,654.94l-17.13,20-26.83-16.92,20.81-24.33c-1.44-.35-2.85-.77-4.22-1.25s-2.8-1-4.24-1.42l16.37-19.14c1.25.57,2.54,1.13,3.86,1.67s2.69,1.07,4.14,1.54l3.89-4.54.44.28Z"/><polygon class="cls-10" points="523.35 627.5 499.88 654.94 496.97 610.86 523.35 627.5"/><path class="cls-9" d="M453.57,660.51,449.69,665l-16.33-10.3-14.25-9,3.88-4.54-17.65-11.13-9.52-6L378.6,644.22c-5.39,6.29-7.72,12.18-6.92,17.49s4.55,9.92,11.2,14.11l26.58,16.76L437,710l10.46,6.6,33.28-38.91Zm-6.14,55.78L437,709.7l-27.54-17.36L383,675.65q-20.13-12.71-4.23-31.3l17.11-20,9.5,6,17.33,10.93-3.88,4.54L433.38,655l16.35,10.31,3.88-4.53,26.83,16.91Zm-15.5-36.73c-1.13-.72-2.27-1.5-3.44-2.36a73,73,0,0,1-6.74-5.48,62.45,62.45,0,0,1-5.95-6.25,34.37,34.37,0,0,1-4.3-6.47l-4,2.33a35,35,0,0,0,4.51,6.75,63.16,63.16,0,0,0,6.19,6.4,71,71,0,0,0,7.14,5.67c1.06.74,2.12,1.45,3.15,2.1q2.08,1.31,4.07,2.38l2.55-3,.14-.16-.15-.08C434.08,680.85,433,680.24,431.93,679.56Zm.61,4.81c-1.28-.68-2.59-1.46-3.92-2.29-.93-.58-2-1.26-3.15-2.09a73.5,73.5,0,0,1-7.11-5.66,62,62,0,0,1-6.17-6.38,34.57,34.57,0,0,1-4.4-6.54l3.63-2.13a34.28,34.28,0,0,0,4.23,6.31,59.71,59.71,0,0,0,6,6.27,72.1,72.1,0,0,0,6.77,5.51c1.1.8,2.22,1.58,3.44,2.36,1.06.66,2.12,1.27,3.14,1.82Z"/><path class="cls-10" d="M480.44,677.68l-33,38.61L437,709.7l-1.85-28.05.14-.16-.15-.08L433.38,655l16.35,10.31,3.88-4.53Z"/><path class="cls-10" d="M437,709.7l-27.54-17.36-4.08-62,17.33,10.93-3.88,4.54L433.38,655l1.74,26.42c-1-.56-2.11-1.17-3.19-1.85s-2.27-1.5-3.44-2.36a73,73,0,0,1-6.74-5.48,62.45,62.45,0,0,1-5.95-6.25,34.37,34.37,0,0,1-4.3-6.47l-4,2.33a35,35,0,0,0,4.51,6.75,63.16,63.16,0,0,0,6.19,6.4,71,71,0,0,0,7.14,5.67c1.06.74,2.12,1.45,3.15,2.1q2.08,1.31,4.07,2.38l2.55-3Z"/><path class="cls-10" d="M409.44,692.34,383,675.65q-20.13-12.71-4.23-31.3l17.11-20,9.5,6Z"/></g><path class="cls-9" d="M679.06,768.91l.38-.44,23.76-27.78-26.71-16.84-.47-.3-76.19,89.1L627,829.79l30-35,7.58,4.78,15.74-18.39,6.36-7.43-7.15-4.52Zm1.2,11.94L664.5,799.26l-7.58-4.78-30,35L600.13,812.6l75.93-88.79.45.28,26.39,16.64-23.48,27.46-.66.77.74.47Z"/><polygon class="cls-10" points="680.26 780.85 664.5 799.26 656.92 794.48 626.96 829.52 600.13 812.6 676.06 723.81 676.51 724.09 679.42 768.19 678.76 768.96 679.5 769.43 680.26 780.85"/><polygon class="cls-10" points="679.5 769.43 686.34 773.74 680.26 780.85 679.5 769.43"/><polygon class="cls-10" points="702.9 740.73 679.42 768.19 676.51 724.09 702.9 740.73"/><path class="cls-9" d="M433.93,460.87a58.61,58.61,0,0,1-6.85-9.31l-4,1.64-.33.14c.13.25.25.5.39.74a42.08,42.08,0,0,0,7.23,9.74,58.23,58.23,0,0,0,10.47,8.42l2.77-3.24A44.39,44.39,0,0,1,433.93,460.87Zm6.9,11.11a58.77,58.77,0,0,1-10.29-8.3,41.56,41.56,0,0,1-7.4-10.1,1,1,0,0,1-.08-.14l.07,0,3.86-1.6a59.62,59.62,0,0,0,6.79,9.2,45,45,0,0,0,9.56,8Zm-6.9-11.11a58.61,58.61,0,0,1-6.85-9.31l-4,1.64-.33.14c.13.25.25.5.39.74a42.08,42.08,0,0,0,7.23,9.74,58.23,58.23,0,0,0,10.47,8.42l2.77-3.24A44.39,44.39,0,0,1,433.93,460.87Zm6.9,11.11a58.77,58.77,0,0,1-10.29-8.3,41.56,41.56,0,0,1-7.4-10.1,1,1,0,0,1-.08-.14l.07,0,3.86-1.6a59.62,59.62,0,0,0,6.79,9.2,45,45,0,0,0,9.56,8Zm17.64-40.3a41.88,41.88,0,0,0-4.65-2.55A32.85,32.85,0,0,0,441.21,426q-.61,0-1.23,0a32.17,32.17,0,0,0-7.37.87l-.41.1a38.37,38.37,0,0,0-10.53,4.51,68.49,68.49,0,0,0-16.06,14.23c-8.63,10.08-12.9,19.24-12.68,27.21s4.64,14.78,13.16,20.15a41.12,41.12,0,0,0,4.66,2.55,32.65,32.65,0,0,0,13.91,3.2c.49,0,1,0,1.46,0a33.85,33.85,0,0,0,6-.85l.3-.08a39.8,39.8,0,0,0,13.12-6.14,70.81,70.81,0,0,0,13.33-12.35c8.74-10.23,13.06-19.47,12.82-27.46S467,437.05,458.47,431.68Zm.25,47.5a70.51,70.51,0,0,1-13.18,12.26,39.5,39.5,0,0,1-13.16,6.17l-.3.07a33.41,33.41,0,0,1-6,.85,32.22,32.22,0,0,1-15.28-3.15,41.53,41.53,0,0,1-4.63-2.54q-12.76-8-13.07-20t12.63-27.07a68.19,68.19,0,0,1,15.93-14.15,37.64,37.64,0,0,1,10.56-4.53l.41-.09a31.34,31.34,0,0,1,8.57-.84,32.47,32.47,0,0,1,12.5,3.14,40.66,40.66,0,0,1,4.63,2.54q12.78,8,13.14,20T458.72,479.18Zm-24.79-18.31a58.61,58.61,0,0,1-6.85-9.31l-4,1.64-.33.14c.13.25.25.5.39.74a42.08,42.08,0,0,0,7.23,9.74,58.23,58.23,0,0,0,10.47,8.42l2.77-3.24A44.39,44.39,0,0,1,433.93,460.87Zm6.9,11.11a58.77,58.77,0,0,1-10.29-8.3,41.56,41.56,0,0,1-7.4-10.1,1,1,0,0,1-.08-.14l.07,0,3.86-1.6a59.62,59.62,0,0,0,6.79,9.2,45,45,0,0,0,9.56,8Z"/><path class="cls-10" d="M471.5,451.86q.36,12-12.78,27.32a70.51,70.51,0,0,1-13.18,12.26l-4.31-65.27a32.47,32.47,0,0,1,12.5,3.14,40.66,40.66,0,0,1,4.63,2.54Q471.14,439.89,471.5,451.86Z"/><path class="cls-10" d="M445.54,491.44a39.5,39.5,0,0,1-13.16,6.17l-.3.07a33.41,33.41,0,0,1-6,.85l-2.94-44.45a42.08,42.08,0,0,0,7.23,9.74,58.23,58.23,0,0,0,10.47,8.42l2.77-3.24a44.39,44.39,0,0,1-9.71-8.13,58.61,58.61,0,0,1-6.85-9.31l-4,1.64-1.42-21.57a37.64,37.64,0,0,1,10.56-4.53l.41-.09a31.34,31.34,0,0,1,8.57-.84Z"/><path class="cls-10" d="M426.11,498.53a32.22,32.22,0,0,1-15.28-3.15,41.53,41.53,0,0,1-4.63-2.54q-12.76-8-13.07-20t12.63-27.07a68.19,68.19,0,0,1,15.93-14.15l1.42,21.57-.33.14c.13.25.25.5.39.74Z"/><g class="cls-4"><path class="cls-9" d="M465,632.73a61.4,61.4,0,0,1-6.81-2.05c-2.3-.86-4.32-1.7-6.18-2.56l-.42-.2c-.85-.4-1.64-.79-2.37-1.16-1.15-.57-2.16-1.11-3.07-1.62l2.5-2.92.28.18.46.29a37.28,37.28,0,0,0,4.23,2.29c1,.47,2.06.92,3.16,1.34a46.17,46.17,0,0,0,9.18,2.63l.11,0,21-24.6L446,578.45l-7.24-4.57-16.26,19,.19.12a46.83,46.83,0,0,0,5.12,2.8,51.73,51.73,0,0,0,6.06,2.34,55.87,55.87,0,0,0,11.75,2.35l-2.46,2.87A54.39,54.39,0,0,1,431.2,601a48.8,48.8,0,0,1-6.06-2.35,45.27,45.27,0,0,1-5-2.74l-.14-.09L409.3,608.32c-4.16,4.84-6,9-5.54,12.5s3,6.66,7.58,9.52a219.5,219.5,0,0,0,23.79,13.28c.85.4,1.69.78,2.52,1.15,7.61,3.36,14,5.51,18.91,6.41l.11,0,14.95-17.48-.4,0A37.45,37.45,0,0,1,465,632.73ZM456.6,651q-7.46-1.35-18.87-6.4c-.83-.36-1.66-.74-2.52-1.14a217.59,217.59,0,0,1-23.76-13.27q-6.79-4.27-7.49-9.38t5.49-12.34L420,596.11a44.8,44.8,0,0,0,5.06,2.76,50.09,50.09,0,0,0,6.08,2.35,54,54,0,0,0,12.09,2.38l2.77-3.24A55.86,55.86,0,0,1,433.91,598a48.33,48.33,0,0,1-6-2.34,44,44,0,0,1-5.1-2.78l16-18.71L446,578.7l40.76,25.71-20.81,24.34a46.28,46.28,0,0,1-9.14-2.61c-1.1-.43-2.15-.88-3.14-1.34a38.59,38.59,0,0,1-4.22-2.28l-.58-.37-.3-.2-2.77,3.24q1.56.88,3.39,1.8c.73.37,1.48.73,2.27,1.11l.43.2q3,1.38,6.19,2.56a59.52,59.52,0,0,0,6.83,2.06,37.85,37.85,0,0,0,6.31,1Z"/><path class="cls-10" d="M471.21,633.9,456.6,651q-7.46-1.35-18.87-6.4c-.83-.36-1.66-.74-2.52-1.14a217.59,217.59,0,0,1-23.76-13.27q-6.79-4.27-7.49-9.38t5.49-12.34L420,596.11a44.8,44.8,0,0,0,5.06,2.76,50.09,50.09,0,0,0,6.08,2.35,54,54,0,0,0,12.09,2.38l2.77-3.24A55.86,55.86,0,0,1,433.91,598a48.33,48.33,0,0,1-6-2.34,44,44,0,0,1-5.1-2.78l16-18.71L446,578.7l2.87,43.45-.3-.2-2.77,3.24q1.56.88,3.39,1.8c.73.37,1.48.73,2.27,1.11l.43.2q3,1.38,6.19,2.56a59.52,59.52,0,0,0,6.83,2.06A37.85,37.85,0,0,0,471.21,633.9Z"/><path class="cls-10" d="M486.75,604.41l-20.81,24.34a46.28,46.28,0,0,1-9.14-2.61c-1.1-.43-2.15-.88-3.14-1.34a38.59,38.59,0,0,1-4.22-2.28l-.58-.37L446,578.7Z"/><path class="cls-9" d="M630.66,495.14l-30.16-19-.18.21-48.24,56.41-.21,0a28.31,28.31,0,0,1-5.38-1.16c-2-.64-3.88-1.28-5.61-2-1.19-.46-2.32-.94-3.36-1.42-.54-.25-1.06-.51-1.57-.77-1.6-.84-2.71-1.47-3.51-2a5.42,5.42,0,0,1-2.51-2.85c-.32-1,.08-2.19,1.21-3.52l22-25.67,26.2-30.64-29.45-18.58-.11-.07L494.3,508.91a69.86,69.86,0,0,0-8,11.21A20.22,20.22,0,0,0,483.4,530a14.92,14.92,0,0,0,3.33,9.12c2.21,2.89,5.72,5.86,10.42,8.83l11.28,7.11a42.77,42.77,0,0,0,4.52,2.48,36.53,36.53,0,0,0,5.38,2,50.82,50.82,0,0,0,9.29,1.81l-3.33,3.89,8.53,5.38,21.65,13.65.74-.87,29.22-34.18L592,554l12.48-14.58,9.61-11.24-7.59-4.79ZM613.8,528.2l-9.33,10.91L592,553.72,584.39,549l-29.2,34.16-.76.89L532.8,570.35l-8.2-5.17,3.43-4a49.2,49.2,0,0,1-9.64-1.83,34.59,34.59,0,0,1-5.35-2,41.47,41.47,0,0,1-4.51-2.46l-11.27-7.11A39.47,39.47,0,0,1,486.89,539a14.65,14.65,0,0,1-3.29-9,20.06,20.06,0,0,1,2.83-9.77,70.47,70.47,0,0,1,8-11.18l55.32-64.68.09.06L579,462.8l-25.91,30.31L531,518.93c-1.17,1.37-1.59,2.6-1.25,3.71a5.58,5.58,0,0,0,2.6,3c.86.56,2,1.21,3.52,2,.51.26,1,.52,1.57.77,1.06.49,2.19,1,3.38,1.43q2.72,1.05,5.62,2a27.8,27.8,0,0,0,5.45,1.16l.28,0,48.18-56.34.2-.23,29.81,18.81-24.14,28.23Z"/><path class="cls-10" d="M555.19,583.11l-.76.89L532.8,570.35l-8.2-5.17,3.43-4a49.2,49.2,0,0,1-9.64-1.83,34.59,34.59,0,0,1-5.35-2,41.47,41.47,0,0,1-4.51-2.46l-11.27-7.11A39.47,39.47,0,0,1,486.89,539a14.65,14.65,0,0,1-3.29-9,20.06,20.06,0,0,1,2.83-9.77,70.47,70.47,0,0,1,8-11.18l55.32-64.68.09.06,3.21,48.69L531,518.93c-1.17,1.37-1.59,2.6-1.25,3.71a5.58,5.58,0,0,0,2.6,3c.86.56,2,1.21,3.52,2,.51.26,1,.52,1.57.77,1.06.49,2.19,1,3.38,1.43q2.72,1.05,5.62,2a27.8,27.8,0,0,0,5.45,1.16Z"/><polygon class="cls-10" points="578.98 462.8 553.07 493.11 549.86 444.42 578.98 462.8"/><path class="cls-10" d="M604.47,539.11,592,553.72,584.39,549l-29.2,34.16-3.31-50.2.28,0,48.18-56.34Z"/><polygon class="cls-10" points="606.21 523.42 613.8 528.2 604.47 539.11 600.34 476.61 600.54 476.38 630.35 495.19 606.21 523.42"/></g><path class="cls-9" d="M700,538.88,641.49,502l-39.33,46c-3.72,4.35-5.52,8.48-5.36,12.28s2.28,7,6.31,9.57l14.17,9-4.26,5-26.94-17-20.79,24.31,81,51.08,3.94,2.49L671,620.32l-26.93-17,3.34-3.9.93-1.09,26.93,17,24-28.09-54.57-34.42,3.07-3.59,54.56,34.41.53-.62,23.51-27.48Zm2.89,43.86-.55.64L647.78,549l-3.33,3.89L699,587.28l-23.77,27.79-26.94-17-.91,1.06-3.62,4.24,26.93,17-20.53,24-3.92-2.47L565.6,591l20.52-24,26.94,17,4.53-5.3-14.37-9.07q-6-3.76-6.22-9.4t5.31-12.15l39.22-45.86L700,539.12l26.1,16.47Z"/><path class="cls-10" d="M647.78,549l-3.33,3.89L699,587.28l-23.77,27.79-26.94-17-.91,1.06-3.62,4.24,26.93,17-20.53,24-3.92-2.47L565.6,591l20.52-24,26.94,17,4.53-5.3-14.37-9.07q-6-3.76-6.22-9.4t5.31-12.15l39.22-45.86L700,539.12l2.87,43.62-.55.64Z"/><polygon class="cls-10" points="726.12 555.59 702.89 582.74 700.02 539.12 726.12 555.59"/><path class="cls-5" d="M716.47,349.47l-.08.1-76.11,89L669.44,457l50.17-58.67,26-30.44ZM719.59,398,669.4,456.72l-28.82-18.18,75.83-88.69.1-.12,28.82,18.19Z"/><polygon class="cls-6" points="719.59 398.03 669.4 456.72 640.58 438.54 716.41 349.85 719.59 398.03"/><polygon class="cls-7" points="745.33 367.92 719.59 398.03 716.41 349.85 716.51 349.73 745.33 367.92"/><path class="cls-11" d="M697.59,338.76a26.14,26.14,0,0,0-9.41-9.62,33.72,33.72,0,0,0-3.76-2.06,31.12,31.12,0,0,0-9.68-2.73,27.34,27.34,0,0,0-2.88-.16,29.94,29.94,0,0,0-6.77.82,40,40,0,0,0-5.58,1.79c-.79.31-1.58.66-2.39,1a74.59,74.59,0,0,0-15.06,9.83c-1.2,1-2.43,2-3.67,3.13a180.34,180.34,0,0,0-16.71,17.36c-7.33,8.58-12.94,16.26-16.67,22.82s-6.07,12.52-6.85,17.58A20.61,20.61,0,0,0,600,411.81a26.23,26.23,0,0,0,9.37,9.6,34.13,34.13,0,0,0,3.82,2.1,30.82,30.82,0,0,0,9.66,2.72,25.48,25.48,0,0,0,2.78.15,30,30,0,0,0,6.89-.84,40.31,40.31,0,0,0,5.56-1.76,47.64,47.64,0,0,0,5.6-2.66,80.61,80.61,0,0,0,11.91-8.18q3.31-2.69,6.86-6.08A197.13,197.13,0,0,0,676,392.46a153.67,153.67,0,0,0,16.67-22.83c3.75-6.58,6-12.51,6.81-17.62S699.56,342.47,697.59,338.76ZM699.24,352q-1.17,7.63-6.79,17.55t-16.65,22.8q-7,8.21-13.37,14.27-3.6,3.43-7,6.19a80.18,80.18,0,0,1-11.79,8.11,49.7,49.7,0,0,1-5.66,2.7,41.47,41.47,0,0,1-5.54,1.75,28.31,28.31,0,0,1-9.59.68,30.36,30.36,0,0,1-9.6-2.7,34.42,34.42,0,0,1-3.8-2.08,25.92,25.92,0,0,1-9.3-9.53q-3-5.55-1.81-13.13t6.82-17.51q5.64-9.91,16.65-22.79A181.68,181.68,0,0,1,638.41,341q1.92-1.71,3.77-3.21a73,73,0,0,1,15-9.76c.83-.4,1.64-.76,2.45-1.08a38.78,38.78,0,0,1,5.55-1.79,27.9,27.9,0,0,1,9.58-.65,30.8,30.8,0,0,1,9.62,2.71,33.52,33.52,0,0,1,3.74,2.05,25.88,25.88,0,0,1,9.33,9.55C699.37,342.54,700,346.93,699.24,352ZM651,373.05a60.34,60.34,0,0,1-6.84-9.32L640,365.48l-.1,0,.12.23a41.44,41.44,0,0,0,7.5,10.24A58.13,58.13,0,0,0,658,384.42l2.73-3.19,0-.06-.06,0A44.67,44.67,0,0,1,651,373.05ZM658,384.16a58.75,58.75,0,0,1-10.28-8.31,41.76,41.76,0,0,1-7.49-10.22l3.94-1.65a60.21,60.21,0,0,0,6.77,9.2,45.19,45.19,0,0,0,9.58,8Z"/><path class="cls-8" d="M699.24,352q-1.17,7.63-6.79,17.55t-16.65,22.8q-7,8.21-13.37,14.27l-1.71-25.37,0-.06-.06,0-3.57-53.06c.83-.4,1.64-.76,2.45-1.08a38.78,38.78,0,0,1,5.55-1.79,27.9,27.9,0,0,1,9.58-.65,30.8,30.8,0,0,1,9.62,2.71,33.52,33.52,0,0,1,3.74,2.05,25.88,25.88,0,0,1,9.33,9.55C699.37,342.54,700,346.93,699.24,352Z"/><path class="cls-6" d="M660.71,381.13a44.67,44.67,0,0,1-9.67-8.08,60.34,60.34,0,0,1-6.84-9.32L640,365.48,638.41,341q1.92-1.71,3.77-3.21a73,73,0,0,1,15-9.76Z"/><path class="cls-7" d="M662.43,406.6q-3.6,3.43-7,6.19a80.18,80.18,0,0,1-11.79,8.11L640,365.75a41.44,41.44,0,0,0,7.5,10.24A58.13,58.13,0,0,0,658,384.42l2.73-3.19Z"/><path class="cls-6" d="M643.66,420.9a49.7,49.7,0,0,1-5.66,2.7,41.47,41.47,0,0,1-5.54,1.75,28.31,28.31,0,0,1-9.59.68,30.36,30.36,0,0,1-9.6-2.7,34.42,34.42,0,0,1-3.8-2.08,25.92,25.92,0,0,1-9.3-9.53q-3-5.55-1.81-13.13t6.82-17.51q5.64-9.91,16.65-22.79A181.68,181.68,0,0,1,638.41,341l1.6,24.44-.1,0,.12.23Z"/><path class="cls-5" d="M594.84,380.48c-8.74-6-14.73-10.93-17.82-14.79l0-.07c-3-3.83-3.43-6.85-1.28-9.26l.62-.73L578,353.7l-1.86-1.17-32.18-20.31-.31.37-1.93,2.24a6.84,6.84,0,0,1-3.65,2.1,10.47,10.47,0,0,1-2.46.27,19.48,19.48,0,0,1-4.78-.68,55.56,55.56,0,0,1-9.34-3.53c-3.55-1.66-7.66-3.84-12.2-6.49l-.15-.08-16.25,19,.19.13c4.66,2.94,9,5.61,13,7.92s7.48,4.19,10.89,5.8a99.36,99.36,0,0,0,9.94,4c3.12,1.06,6.43,2,10.15,3l.43.11-.21-.4a48.91,48.91,0,0,1-2.39-5.16,30.57,30.57,0,0,1-1.36-4.65l3.68-.39a96.89,96.89,0,0,0,5.72,12.09,50.22,50.22,0,0,0,3.42,5.22h0a55.81,55.81,0,0,0,4.21,5,88.74,88.74,0,0,0,11.32,10c4.48,3.38,10.14,7.23,16.81,11.43l.14.09.42-.49L595,380.61Zm-15.68,18.37-.44.51q-10.07-6.35-16.79-11.42a89.64,89.64,0,0,1-11.3-9.95,57.24,57.24,0,0,1-4.38-5.28,48.59,48.59,0,0,1-3.23-4.94,96.5,96.5,0,0,1-5.76-12.21l-4,.43a29.83,29.83,0,0,0,1.42,4.91,46.94,46.94,0,0,0,2.4,5.17c-3.54-.9-6.91-1.88-10.13-3a99.48,99.48,0,0,1-9.92-4c-3.4-1.61-7-3.53-10.88-5.79s-8.18-4.9-13-7.92l16-18.71q6.86,4,12.22,6.49a55.5,55.5,0,0,0,9.37,3.55,15.77,15.77,0,0,0,7.34.41,7.18,7.18,0,0,0,3.75-2.16l1.79-2.1.34-.39,32.16,20.29.17,2.58-.75.88q-3.33,3.72,1.32,9.58a1.83,1.83,0,0,0,.13.16q4.71,5.8,17.74,14.68Z"/><path class="cls-6" d="M546.25,372.71a48.59,48.59,0,0,1-3.23-4.94,96.5,96.5,0,0,1-5.76-12.21l-4,.43a29.83,29.83,0,0,0,1.42,4.91,46.94,46.94,0,0,0,2.4,5.17c-3.54-.9-6.91-1.88-10.13-3a99.48,99.48,0,0,1-9.92-4c-3.4-1.61-7-3.53-10.88-5.79s-8.18-4.9-13-7.92l16-18.71q6.86,4,12.22,6.49a55.5,55.5,0,0,0,9.37,3.55,15.77,15.77,0,0,0,7.34.41,7.18,7.18,0,0,0,3.75-2.16l1.79-2.1Z"/><path class="cls-6" d="M579.16,398.85l-.44.51q-10.07-6.35-16.79-11.42a89.64,89.64,0,0,1-11.3-9.95,57.24,57.24,0,0,1-4.38-5.28l-2.63-39.84.34-.39,32.16,20.29.17,2.58-.75.88q-3.33,3.72,1.32,9.58a1.83,1.83,0,0,0,.13.16Z"/><polygon class="cls-9" points="577.66 353.74 576.29 355.35 576.12 352.77 577.66 353.74"/><path class="cls-8" d="M594.73,380.65l-15.57,18.2L577,366Q581.7,371.78,594.73,380.65Z"/><path class="cls-5" d="M596.94,301.39a83.12,83.12,0,0,1-9.3-9.95l-2.87,1.89-1,.66c.37.51.76,1,1.16,1.51a63.15,63.15,0,0,0,8.65,8.93A100.17,100.17,0,0,0,605,312.85l2.77-3.23A78.94,78.94,0,0,1,596.94,301.39Zm8,11.2a99.44,99.44,0,0,1-11.21-8.32,63.53,63.53,0,0,1-8.81-9.12l-.85-1.11.74-.48,2.81-1.85a84,84,0,0,0,9.21,9.83,79.72,79.72,0,0,0,10.62,8.12Zm-8-11.2a83.12,83.12,0,0,1-9.3-9.95l-2.87,1.89-1,.66c.37.51.76,1,1.16,1.51a63.15,63.15,0,0,0,8.65,8.93A100.17,100.17,0,0,0,605,312.85l2.77-3.23A78.94,78.94,0,0,1,596.94,301.39Zm8,11.2a99.44,99.44,0,0,1-11.21-8.32,63.53,63.53,0,0,1-8.81-9.12l-.85-1.11.74-.48,2.81-1.85a84,84,0,0,0,9.21,9.83,79.72,79.72,0,0,0,10.62,8.12Zm-8-11.2a83.12,83.12,0,0,1-9.3-9.95l-2.87,1.89-1,.66c.37.51.76,1,1.16,1.51a63.15,63.15,0,0,0,8.65,8.93A100.17,100.17,0,0,0,605,312.85l2.77-3.23A78.94,78.94,0,0,1,596.94,301.39Zm8,11.2a99.44,99.44,0,0,1-11.21-8.32,63.53,63.53,0,0,1-8.81-9.12l-.85-1.11.74-.48,2.81-1.85a84,84,0,0,0,9.21,9.83,79.72,79.72,0,0,0,10.62,8.12Zm-8-11.2a83.12,83.12,0,0,1-9.3-9.95l-2.87,1.89-1,.66c.37.51.76,1,1.16,1.51a63.15,63.15,0,0,0,8.65,8.93A100.17,100.17,0,0,0,605,312.85l2.77-3.23A78.94,78.94,0,0,1,596.94,301.39Zm8,11.2a99.44,99.44,0,0,1-11.21-8.32,63.53,63.53,0,0,1-8.81-9.12l-.85-1.11.74-.48,2.81-1.85a84,84,0,0,0,9.21,9.83,79.72,79.72,0,0,0,10.62,8.12Zm36.69-6c-4.57-7.43-14.27-15.85-28.84-25-2.39-1.51-4.72-2.93-7-4.23-4.27-2.49-8.31-4.61-12.06-6.37l-1-.44a72.11,72.11,0,0,0-9.89-3.7,48.41,48.41,0,0,0-6.54-1.4,34.23,34.23,0,0,0-4.55-.31,27.19,27.19,0,0,0-6.22.69,24,24,0,0,0-13.26,8.46c-5.15,6-6.76,12.05-4.77,17.94s7.33,12.22,16,19l-2.07,2.42-26.94-17L519.76,314l23.6,14.88,32.54,20.52,13.47,8.5,15.32,9.66,14.78-17.28-26.93-17,2.06-2.41c.9.45,1.78.88,2.65,1.28a76.29,76.29,0,0,0,12.44,4.65A40.14,40.14,0,0,0,620,338.28h.56a23.27,23.27,0,0,0,5-.62A25.23,25.23,0,0,0,639,329C645.31,321.62,646.19,314.09,641.61,306.62Zm-2.78,22.27a24.94,24.94,0,0,1-13.33,8.58,23.71,23.71,0,0,1-5,.61,39.14,39.14,0,0,1-10.86-1.51,75.93,75.93,0,0,1-12.34-4.63c-.92-.43-1.85-.87-2.79-1.35l-2.32,2.7,26.94,17-14.52,17-15.3-9.65-13.47-8.49L543.34,328.6l-23.28-14.68,14.52-17,26.94,17,2.31-2.71q-13.17-10.27-16.1-19t4.73-17.75a25.08,25.08,0,0,1,10.59-7.63,22.79,22.79,0,0,1,2.56-.76,29.58,29.58,0,0,1,10.7-.38,46.22,46.22,0,0,1,6.59,1.41,70.2,70.2,0,0,1,9.79,3.68l.94.43q5.7,2.65,12.16,6.41c2.22,1.29,4.52,2.69,6.88,4.18q21.95,13.83,28.77,25T638.83,328.89Zm-51.19-37.45-2.87,1.89-1,.66c.37.51.76,1,1.16,1.51a63.15,63.15,0,0,0,8.65,8.93A100.17,100.17,0,0,0,605,312.85l2.77-3.23a78.94,78.94,0,0,1-10.79-8.23A83.12,83.12,0,0,1,587.64,291.44Zm17.28,21.15a99.44,99.44,0,0,1-11.21-8.32,63.53,63.53,0,0,1-8.81-9.12l-.85-1.11.74-.48,2.81-1.85a84,84,0,0,0,9.21,9.83,79.72,79.72,0,0,0,10.62,8.12Zm-8-11.2a83.12,83.12,0,0,1-9.3-9.95l-2.87,1.89-1,.66c.37.51.76,1,1.16,1.51a63.15,63.15,0,0,0,8.65,8.93A100.17,100.17,0,0,0,605,312.85l2.77-3.23A78.94,78.94,0,0,1,596.94,301.39Zm8,11.2a99.44,99.44,0,0,1-11.21-8.32,63.53,63.53,0,0,1-8.81-9.12l-.85-1.11.74-.48,2.81-1.85a84,84,0,0,0,9.21,9.83,79.72,79.72,0,0,0,10.62,8.12Zm-8-11.2a83.12,83.12,0,0,1-9.3-9.95l-2.87,1.89-1,.66c.37.51.76,1,1.16,1.51a63.15,63.15,0,0,0,8.65,8.93A100.17,100.17,0,0,0,605,312.85l2.77-3.23A78.94,78.94,0,0,1,596.94,301.39Zm8,11.2a99.44,99.44,0,0,1-11.21-8.32,63.53,63.53,0,0,1-8.81-9.12l-.85-1.11.74-.48,2.81-1.85a84,84,0,0,0,9.21,9.83,79.72,79.72,0,0,0,10.62,8.12Z"/><path class="cls-8" d="M638.83,328.89a24.94,24.94,0,0,1-13.33,8.58,23.71,23.71,0,0,1-5,.61,39.14,39.14,0,0,1-10.86-1.51l-3.89-59c2.22,1.29,4.52,2.69,6.88,4.18q21.95,13.83,28.77,25T638.83,328.89Z"/><path class="cls-7" d="M619.17,350.28l-14.52,17-15.3-9.65-4.42-62.11a63.15,63.15,0,0,0,8.65,8.93A100.17,100.17,0,0,0,605,312.85l2.77-3.23a78.94,78.94,0,0,1-10.79-8.23,83.12,83.12,0,0,1-9.3-9.95l-2.87,1.89-1.87-26.28a70.2,70.2,0,0,1,9.79,3.68l.94.43q5.7,2.65,12.16,6.41l3.89,59a75.93,75.93,0,0,1-12.34-4.63c-.92-.43-1.85-.87-2.79-1.35l-2.32,2.7Z"/><path class="cls-6" d="M589.35,357.61l-13.47-8.49L543.34,328.6l-23.28-14.68,14.52-17,26.94,17,2.31-2.71q-13.17-10.27-16.1-19t4.73-17.75a25.08,25.08,0,0,1,10.59-7.63,22.79,22.79,0,0,1,2.56-.76,29.58,29.58,0,0,1,10.7-.38,46.22,46.22,0,0,1,6.59,1.41l1.87,26.28-1,.66c.37.51.76,1,1.16,1.51Z"/><path class="cls-12" d="M734.7,161.19l-.1.12-48.22,56.38-.25-.05a40,40,0,0,1-6.43-1.73c-2.34-.82-4.68-1.74-6.94-2.72-.81-.35-1.6-.7-2.36-1.06-1.33-.62-2.58-1.24-3.72-1.86-1.94-1-3.22-1.77-4-2.28a5.46,5.46,0,0,1-2.52-2.87c-.31-1,.1-2.21,1.21-3.52l21.48-25.12,26.67-31.17-29.56-18.66-.36.42-55.06,64.39a69.83,69.83,0,0,0-8,11.21,20.39,20.39,0,0,0-2.86,9.88,14.84,14.84,0,0,0,3.33,9.1c2.18,2.88,5.69,5.85,10.43,8.84l9.27,5.84a69.93,69.93,0,0,0,7.77,4.25c1.78.83,3.62,1.59,5.46,2.26A67.1,67.1,0,0,0,662,246.17l-3.52,4.13,4.68,2.95,25.5,16.06.8-.94,48.44-56.64,27-31.51Zm3.2,50.25-48.44,56.65-.82,1L663.16,253l-4.36-2.75,3.61-4.23a65.29,65.29,0,0,1-12.47-3.36q-2.78-1-5.44-2.26a70.24,70.24,0,0,1-7.75-4.23l-9.27-5.85q-7.08-4.45-10.38-8.79a14.61,14.61,0,0,1-3.29-9,20.15,20.15,0,0,1,2.84-9.79,69.8,69.8,0,0,1,8-11.17l54.93-64.22.38-.45,29.22,18.44L682.82,176.2,661.2,201.47a5.64,5.64,0,0,0-1.29,2.32,2.61,2.61,0,0,0,0,1.39l.06.17a5.69,5.69,0,0,0,2.55,2.81c.85.54,2.2,1.3,4,2.29,1.16.62,2.4,1.24,3.74,1.87l2.36,1.06c2.24,1,4.55,1.87,7,2.72a40.07,40.07,0,0,0,6.51,1.74c.1,0,.21,0,.31.06l48.15-56.31.12-.14,29.83,18.81Z"/><path class="cls-6" d="M660,205.35,663.16,253l-4.36-2.75,3.61-4.23a65.29,65.29,0,0,1-12.47-3.36q-2.78-1-5.44-2.26a70.24,70.24,0,0,1-7.75-4.23l-9.27-5.85q-7.08-4.45-10.38-8.79a14.61,14.61,0,0,1-3.29-9,20.15,20.15,0,0,1,2.84-9.79,69.8,69.8,0,0,1,8-11.17l54.93-64.22,3.22,48.83L661.2,201.47a5.64,5.64,0,0,0-1.29,2.32,2.61,2.61,0,0,0,0,1.39Z"/><polygon class="cls-8" points="709.2 145.36 682.82 176.2 679.6 127.37 679.98 126.92 709.2 145.36"/><path class="cls-7" d="M689.46,268.09l-.82,1L663.16,253,660,205.35a5.69,5.69,0,0,0,2.55,2.81c.85.54,2.2,1.3,4,2.29,1.16.62,2.4,1.24,3.74,1.87l2.36,1.06c2.24,1,4.55,1.87,7,2.72a40.07,40.07,0,0,0,6.51,1.74Z"/><path class="cls-6" d="M737.9,211.44l-48.44,56.65-3.31-50.25c.1,0,.21,0,.31.06l48.15-56.31Z"/><polygon class="cls-8" points="764.56 180.26 737.9 211.44 734.61 161.59 734.73 161.45 764.56 180.26"/><path class="cls-9" d="M497.32,416.05l6.2-7.24-20.76-13.09-13.1-8.27-4.28,5a9.35,9.35,0,0,0-2.13,7.07A11.73,11.73,0,0,0,467,407l-2.76,1.17a8,8,0,0,1-2.21-2.76,13.47,13.47,0,0,1-1.31-4,13.93,13.93,0,0,1-.14-4.17,9.81,9.81,0,0,1,1-3.51l.09-.16-7.49-4.72L433.3,413.26l52.5,33.13.29-.34L506.69,422Zm-11.25,29.72-.31.36L433.6,413.22l20.62-24.11,7.18,4.53a10.27,10.27,0,0,0-1.06,3.57,14.4,14.4,0,0,0,.14,4.24,14,14,0,0,0,1.33,4,8.11,8.11,0,0,0,2.37,2.9l3.13-1.34a11.61,11.61,0,0,1-3.86-7.52,9.11,9.11,0,0,1,2.09-6.92l4.16-4.87L482.78,396l20.43,12.89L497,416.1l9.37,5.91Z"/><path class="cls-10" d="M486.07,445.77l-.31.36L433.6,413.22l20.62-24.11,7.18,4.53a10.27,10.27,0,0,0-1.06,3.57,14.4,14.4,0,0,0,.14,4.24,14,14,0,0,0,1.33,4,8.11,8.11,0,0,0,2.37,2.9l3.13-1.34a11.61,11.61,0,0,1-3.86-7.52,9.11,9.11,0,0,1,2.09-6.92l4.16-4.87L482.78,396Z"/><polygon class="cls-10" points="506.39 422.01 486.07 445.77 482.78 395.96 503.21 408.85 497.02 416.1 506.39 422.01"/><path class="cls-13" d="M806.81,661.45l2.41,1.52-7,8.13-2.42-1.53-9.54,11.16-8.54-5.39.8-.93a11.53,11.53,0,0,1-2.51-.52,9,9,0,0,1-1.16-.46,9.45,9.45,0,0,1-1.13-.61l-13.11-8.27,6.54-7.64,3.17,2,2.27-2.65a8.47,8.47,0,0,1,.28-5,17.77,17.77,0,0,1,3.49-5.74,21.42,21.42,0,0,1,4.26-3.89,14.69,14.69,0,0,1,4.38-2.06l.33-.08a10.43,10.43,0,0,1,4-.19,10.2,10.2,0,0,1,2.77.85,9.22,9.22,0,0,1,1.23.67,8.77,8.77,0,0,1,2.9,2.84,6.74,6.74,0,0,1,1,3.6,10.22,10.22,0,0,1-1,4.2,19.09,19.09,0,0,1-3,4.65,20.28,20.28,0,0,1-5.34,4.58,13.05,13.05,0,0,1-3.54,1.42,9.78,9.78,0,0,1-1.92.28l-2.27,2.65.47.31a24.07,24.07,0,0,0,2.7,1.47c.42.2.84.38,1.25.54L806,647.08l8.53,5.38ZM788,651.19a19,19,0,0,0,3.33,2.68l.88-1a14.6,14.6,0,0,1-3.09-2.58,19.61,19.61,0,0,1-2.18-3l-1.37.58a13.64,13.64,0,0,0,2.43,3.33Z"/><path class="cls-13" d="M825.47,670.08a10,10,0,0,1,.91.48,5.87,5.87,0,0,1,1.93,1.91,18.17,18.17,0,0,1,1.16,2.22c.34.73.68,1.43,1,2.09a4.07,4.07,0,0,0,1.44,1.58,10.61,10.61,0,0,0,1,.54c.3.14.61.27.95.39a17,17,0,0,0,2.24.67c.76.18,1.49.32,2.2.42a18.86,18.86,0,0,0,1.95.17l-8.48,9.91a14.21,14.21,0,0,1-3.7-.25,10.29,10.29,0,0,1-2.63-.83,12.75,12.75,0,0,1-1.39-.77l-.21-.13a6.91,6.91,0,0,1-2.07-1.94,17.86,17.86,0,0,1-1.31-2.26c-.37-.76-.73-1.47-1.06-2.11a3.48,3.48,0,0,0-1.24-1.46,6.54,6.54,0,0,0-.64-.35,7.41,7.41,0,0,0-1.09-.4,15.1,15.1,0,0,0-2-.39,11.62,11.62,0,0,0-1.94-.08c-.63,0-1.17.08-1.61.14l8.47-9.91.17,0a13.27,13.27,0,0,1,3-.29A6.76,6.76,0,0,1,825.47,670.08Z"/><path class="cls-13" d="M820.21,719.66l8.54,5.39-24.17,28.27L796,747.93l10.8-12.64c-.45-.11-.91-.24-1.34-.39l-1.35-.45,5.66-6.61c.39.18.8.36,1.22.53s.86.34,1.32.49l1-1.17a21.75,21.75,0,0,1-2.57-1l5.65-6.61,1.21.56c.41.18.83.36,1.27.53Z"/><path class="cls-13" d="M821.91,737.17l26.93,17L844.72,759l-8.58-5.4-.68.79,8.58,5.4-3.86,4.51a27.58,27.58,0,0,1-5.39-1.67c-.38-.16-.76-.33-1.13-.51a33.17,33.17,0,0,1-3.95-2.15l-.8.93a35.22,35.22,0,0,0,3.88,2.12l1.21.54a26.63,26.63,0,0,0,5.38,1.67l-4.44,5.2a55.2,55.2,0,0,1-8.2-3l-.45-.21a81.25,81.25,0,0,1-9-5q-5.7-3.58-7.06-6.64c-.91-2-.52-4.06,1.17-6l1.06-1.23c.91.57,1.75,1.07,2.52,1.51s1.53.83,2.29,1.2l.75.36c.53.24,1.07.48,1.63.71.83.36,1.76.72,2.81,1.09l.8-.92c-1.05-.38-2-.75-2.82-1.09-.57-.24-1.14-.49-1.68-.75L818,750c-.76-.37-1.53-.77-2.3-1.21s-1.61-.93-2.52-1.51l3.89-4.54,8.57,5.41.68-.8-8.57-5.4Z"/><g class="cls-4"><path class="cls-13" d="M801.83,708.07l15.27,9.63-14.16,16.56a29.61,29.61,0,0,1-4.22-1.35c-.46-.19-.92-.39-1.36-.6a24.46,24.46,0,0,1-2.73-1.48l-.88,1a22.94,22.94,0,0,0,2.31,1.25l.39.18c.8.38,1.64.73,2.51,1.06s2,.72,3,1a15.37,15.37,0,0,0,2.7.53l-8.34,9.74a14.28,14.28,0,0,1-2.65-.58c-.94-.3-1.9-.64-2.89-1-.38-.16-.77-.33-1.15-.51-.59-.28-1.19-.58-1.78-.9-1-.52-1.89-1.05-2.76-1.6a12.75,12.75,0,0,1-3.3-2.79,4.75,4.75,0,0,1-1-2.87,6.33,6.33,0,0,1,.91-3.11,21.36,21.36,0,0,1,2.55-3.56l7.65-8.95a17.36,17.36,0,0,0,1.79,1l.12.05c.62.29,1.27.55,1.94.8a21,21,0,0,0,2.15.63,14.57,14.57,0,0,0,2,.34l.89-1a13.47,13.47,0,0,1-2-.33,19.46,19.46,0,0,1-2.15-.64,22,22,0,0,1-2.05-.85,15.52,15.52,0,0,1-1.79-1Z"/><polygon class="cls-13" points="789.73 700.45 798.27 705.83 796.53 707.86 798.94 709.38 792 717.51 789.59 715.98 787.41 718.53 778.87 713.15 789.73 700.45"/><path class="cls-13" d="M761,703.21l25.65,16.18-5.53,6.48a27.62,27.62,0,0,1-5.23-1.58c-.45-.18-.89-.38-1.33-.58a33.22,33.22,0,0,1-3.6-2l-.74.86a31.71,31.71,0,0,0,3.61,2c.44.21.88.4,1.32.59a27.59,27.59,0,0,0,5.23,1.57L775,733.1a39.59,39.59,0,0,1-6.19-2.28l-1.43-.7q-3.78-1.93-7.81-4.47c-3.8-2.4-6.13-4.85-7-7.32s-.27-4.89,1.74-7.23l1.35-1.58a49.57,49.57,0,0,0,4.72,2.65c.17.09.35.18.54.26a42.83,42.83,0,0,0,4.42,1.76l.74-.86a39.68,39.68,0,0,1-4.32-1.71l-.65-.31a48.82,48.82,0,0,1-4.72-2.66Z"/><path class="cls-13" d="M786,700c.38,2-.38,4.16-2.26,6.36a10.38,10.38,0,0,1-5.51,3.59c-.28.07-.57.11-.87.16a10.47,10.47,0,0,1-5.78-1.09,18.67,18.67,0,0,1-2.11-1.17q-4.29-2.7-4.85-5.76c-.38-2,.38-4.15,2.26-6.36a10.47,10.47,0,0,1,5.5-3.6,8.72,8.72,0,0,1,.89-.16,10.48,10.48,0,0,1,5.75,1.1,18.31,18.31,0,0,1,2.1,1.15Q785.47,697,786,700Zm-8.29,4.1.86-1a15.46,15.46,0,0,1-2.84-2.27,21.25,21.25,0,0,1-2.22-2.67l-1.27.74a18.3,18.3,0,0,0,5.47,5.2Z"/></g><polygon class="cls-13" points="750.96 675.99 759.5 681.38 751.82 690.36 754.23 691.89 747.28 700.01 744.88 698.49 735.33 709.65 726.79 704.26 750.96 675.99"/><g class="cls-4"><path class="cls-13" d="M759.62,617.86l16.23,10.23-14.08,16.46a10.66,10.66,0,0,1-3.23-.61c-.36-.14-.71-.28-1.06-.44a18.53,18.53,0,0,1-1.79-1l-1,1.13c.38.24.85.52,1.39.83.35.19.72.38,1.11.56.22.11.45.21.69.31.65.26,1.33.5,2,.72a7.44,7.44,0,0,0,2.07.32l15-17.56,9.53,6L762.37,663.1l-9.52-6,1.3-1.52a13.55,13.55,0,0,1-2.08-.43c-.76-.21-1.53-.46-2.32-.75s-1.54-.59-2.26-.92l-.12-.06a14.6,14.6,0,0,1-1.82-1l-2.64-1.66a12.42,12.42,0,0,1-3.3-2.8,4.66,4.66,0,0,1-1.05-2.86,6.48,6.48,0,0,1,.9-3.12,21.93,21.93,0,0,1,2.55-3.55l7.86-9.2a14.07,14.07,0,0,0,1.62.88,15.44,15.44,0,0,0,1.93.75,16.83,16.83,0,0,0,3.85.76l1-1.14a17,17,0,0,1-3.85-.76,15.44,15.44,0,0,1-1.93-.75,15.71,15.71,0,0,1-1.62-.87Z"/><polygon class="cls-13" points="748.16 610.63 757.34 616.42 733.16 644.68 723.99 638.89 748.16 610.63"/><path class="cls-13" d="M740.5,616.92a48.68,48.68,0,0,1-5.3,7.27,52.29,52.29,0,0,1-6.48,6.51,21.73,21.73,0,0,1-5.55,3.44,14.41,14.41,0,0,1-1.77.56,9.17,9.17,0,0,1-3,.22,10,10,0,0,1-3.05-.86,13.28,13.28,0,0,1-1.22-.67,8.19,8.19,0,0,1-3-3,6.47,6.47,0,0,1-.58-4.18,16.81,16.81,0,0,1,2.17-5.57,48.15,48.15,0,0,1,5.3-7.26,52.29,52.29,0,0,1,6.48-6.51,21.48,21.48,0,0,1,5.54-3.45,13,13,0,0,1,1.77-.57,8.87,8.87,0,0,1,3.05-.21,9.93,9.93,0,0,1,3,.86,10.78,10.78,0,0,1,1.19.66,8.15,8.15,0,0,1,3,3,6.63,6.63,0,0,1,.58,4.17A16.5,16.5,0,0,1,740.5,616.92Zm-11,4.75.88-1a14.6,14.6,0,0,1-3.09-2.58,19.54,19.54,0,0,1-2.18-3l-1.36.56A13.21,13.21,0,0,0,726.2,619a18.63,18.63,0,0,0,3.33,2.68Z"/></g><path class="cls-13" d="M704.63,646.78l7.41,4.66-15.29,17.87a1.24,1.24,0,0,0-.39,1.18,1.77,1.77,0,0,0,.82,1,10.57,10.57,0,0,0,1.08.58l.21.09a9,9,0,0,0,1.64.54l16-18.67,7.27,4.59-8.72,10.2,1,.6,8.72-10.2,7.27,4.59L707.39,692l-7.27-4.59L709,677l-1-.59-8.91,10.43-7.27-4.59L693,681a18.62,18.62,0,0,1-3.49-.8,13.68,13.68,0,0,1-1.58-.63,12.52,12.52,0,0,1-1.57-.86c-2.08-1.3-3.23-2.65-3.45-4s.47-3,2.08-4.89Z"/><path class="cls-13" d="M733.85,665.2l15.91,10L742,684.32A42.2,42.2,0,0,1,733.7,692a26.17,26.17,0,0,1-8.18,3.82l-.35.08a19.4,19.4,0,0,1-7.69.29,25.29,25.29,0,0,1-6.44-2c-.46-.22-.91-.44-1.37-.68l7.69-9a12.7,12.7,0,0,0,4.27,1.21,8.72,8.72,0,0,0,2.73-.21,8.4,8.4,0,0,0,1.32-.42,14.5,14.5,0,0,0,4.11-2.55,37.89,37.89,0,0,0,4.47-4.54,23.66,23.66,0,0,1-3.54-1.32l-.6-.29a31.69,31.69,0,0,1-2.79-1.57l-1.08-.71Z"/><polygon class="cls-13" points="879.9 757.31 887.18 761.9 863 790.17 855.73 785.58 879.9 757.31"/><path class="cls-13" d="M831,726.49l26.92,17L854.1,748l-7.4-4.67a4.92,4.92,0,0,0,1.86,2.55,47.3,47.3,0,0,0,4.6,3.22l-3.8,4.44q-2.94-1.86-5.09-3.39a31.42,31.42,0,0,1-3.66-3.06,19.87,19.87,0,0,1-2.63-3.19,22.06,22.06,0,0,1-2-3.86l-1.32.12a7,7,0,0,0,.53,1.61c.25.54.53,1.11.84,1.7a32.62,32.62,0,0,1-4.62-1.76c-.63-.29-1.26-.61-1.89-.94q-3.23-1.75-7.13-4.21l3.8-4.44a47.36,47.36,0,0,0,4.92,2.78,6.3,6.3,0,0,0,3.35.74L827.18,731Z"/><path class="cls-13" d="M860.25,744.92l10.82,6.83-8.71,10.19.83.52,8.71-10.2,7.27,4.59L855,785.12l-7.27-4.59,8.92-10.43-1.11-.7a24.74,24.74,0,0,1-5,3.47,18.9,18.9,0,0,1-4.22,1.57l-.84.17a15,15,0,0,1-4.9.09,13.27,13.27,0,0,1-3.65-1.1c-.27-.13-.55-.27-.82-.42l7.75-9a4.81,4.81,0,0,0,1.9.14c.2,0,.4-.06.6-.1a7.5,7.5,0,0,0,1.56-.58,13.2,13.2,0,0,0,2.49-1.72,27.27,27.27,0,0,0,2.93-3l3.15-3.68a9.8,9.8,0,0,1-2-.56c-.31-.12-.61-.25-.89-.38s-.61-.3-.89-.45Z"/><rect class="cls-14" x="37.65" y="48.52" width="911.48" height="992.55"/><text class="cls-15" transform="translate(328.41 947.56)"><tspan xml:space="preserve">오늘 우리의 트렌드 다이어리    </tspan></text><path class="cls-16" d="M322.47,937.48a1.87,1.87,0,0,0-.38-1.67.63.63,0,0,0-.43-.24h0l0,0a1.71,1.71,0,0,0,.21-.26,1.61,1.61,0,0,0,.3-1.36,2.83,2.83,0,0,0-1.34-1.6c-.23-.15-2.12-1.4-5.22-3.08a1,1,0,0,0-.95,0,2.66,2.66,0,0,1-1.5,0l-6-3.4A16.1,16.1,0,0,0,314,922a6.82,6.82,0,0,0,1.89-5.42c-.18-7.44-5.19-11.74-14.1-12.12h-.41c-10.39,1-13.46,7.45-14.34,10.5l-.64.3-5.82,3.58,0,0a2.86,2.86,0,0,0-1.23,2.19,2,2,0,0,0,1.33,1.59l.11,0,.37,0c1.45.08,3.43.18,6.38,3.87-4.6,2.74-9.59,5.75-11.15,6.82l-.05,0a3.71,3.71,0,0,0-1.63,3,4,4,0,0,0,1.68,2.73l0,0,8.53,5c-3.7,2.21-7.16,4.32-8.41,5.18l0,0a3.7,3.7,0,0,0-1.64,3,3.89,3.89,0,0,0,1.69,2.72l0,0,19.14,11.2a3.8,3.8,0,0,0,.94.52l0,0a5,5,0,0,0,1.72.3,7.74,7.74,0,0,0,4-1.3l.61-.36c5.17-3.06,10.52-6.23,15.83-9.25l.57-.3c1-.53,2.45-1.25,2.51-2.71a8.47,8.47,0,0,0-.07-1.59l0-.12a3.47,3.47,0,0,0,.25-.29,1.69,1.69,0,0,0,.3-1.36,2.87,2.87,0,0,0-1.36-1.61l-7.93-4.74c6-3.5,7.69-4.4,7.9-4.52A2.64,2.64,0,0,0,322.47,937.48Zm-2.08.36c-.08,0-1.63.85-8.59,4.92l-1.26.73L308,945l-1.24.73-5.2,3.07a6.87,6.87,0,0,1-3.09,1.11,3.46,3.46,0,0,1-1.89-.36c-.18-.1-.28-.18-.3-.19l-.11-.08-8.79-5.15-1.25-.73L277,938.06a2.65,2.65,0,0,1-1.11-1.73,2.51,2.51,0,0,1,1.15-1.92c1.56-1.07,6.61-4.11,11.22-6.86a6.64,6.64,0,0,0,5.43,2.79,12.69,12.69,0,0,0,4.78-1.1l1.29-.53a4.63,4.63,0,0,0,.31.51A8.13,8.13,0,0,0,301.7,931a17.46,17.46,0,0,0,3.78,2.19,9.46,9.46,0,0,0,3.91.81,14.14,14.14,0,0,0,6.42-1.72,6.93,6.93,0,0,0,1.16-.78c2,1.14,3.16,1.91,3.17,1.92l0,0c.22.12.68.47.75.79a.38.38,0,0,1-.09.33,3,3,0,0,1-1.19.81l0,0-10.27,5.93-1.26.73-2.52,1.45-1.25.72-5.13,3a.65.65,0,0,0-.24.88l.05.07a.65.65,0,0,0,.83.16l7-4,2.54-1.47,1.27-.73,9.62-5.55a6.31,6.31,0,0,0,.74-.4.61.61,0,0,0,.12.5.68.68,0,0,1,.18.55c-.09.31-.58.59-.8.68Zm-15.06-11.63c.09.08.19.15.3.23l.06,0,6.54,3.72a8,8,0,0,1-5,.08,8.79,8.79,0,0,1-3-1.46,5.06,5.06,0,0,1-1.13-1.2,2.48,2.48,0,0,1-.17-.29C304.41,926.7,305.05,926.37,305.33,926.21Zm-3.52,1.64c.08.16.18.33.28.49a6.78,6.78,0,0,0,1.41,1.49,9.92,9.92,0,0,0,3.43,1.69,11.35,11.35,0,0,0,2.95.41,6.61,6.61,0,0,0,3.12-.68,5.87,5.87,0,0,0,.92-.61,2.89,2.89,0,0,0,1.21-.23l.64.35a5.84,5.84,0,0,1-.57.35c-1.18.65-5.32,2.6-9.2.87a16.1,16.1,0,0,1-3.5-2,6.94,6.94,0,0,1-1.39-1.47c-.06-.09-.12-.17-.17-.26Zm10.72-17.66a10.92,10.92,0,0,1,2,6.41,5.6,5.6,0,0,1-1.55,4.49,14.69,14.69,0,0,1-6.75,3.7c.39-10.73-2.14-14.95-4-16.59,2.43-.19,6.79-.17,10.09,1.91A.53.53,0,0,0,312.53,910.19Zm-12.14-3.05a9.84,9.84,0,0,0-3-.7,21.41,21.41,0,0,1,4-.75l.29,0a17.89,17.89,0,0,1,7.46,1.7A22.82,22.82,0,0,0,300.39,907.14Zm-12.26,8.4.13-.51a12.13,12.13,0,0,1,5.73-7.14.52.52,0,0,0,.17,0,10.69,10.69,0,0,1,5.9.52h0l.12,0c.05,0,5,1.17,4.83,14.7,0,.21,0,.42,0,.63V924l0,1h-.89l-.7,0-.25,0c-.4,0-.83-.08-1.26-.15h0l-.73-.14a8,8,0,0,1-1.28-.39,3.77,3.77,0,0,1-.95-.55l0,0c-.3-.22-.65-.5-1-.81l-.69-.54-.15-.12-.46-.35-.48-.36a29.42,29.42,0,0,0-7.58-4.33l-.13-.07-.1-.07h0a.87.87,0,0,1-.3-.44A8.8,8.8,0,0,1,288.13,915.54Zm-11,38.47a2.65,2.65,0,0,1-1.11-1.73,2.52,2.52,0,0,1,1.15-1.93c1.31-.89,5-3.16,8.92-5.48l9.24,5.4c-2.68,1.62-5.08,3.08-5.72,3.57l-.62.46c-1.32,1-2.82,2.06-3,4a4,4,0,0,0,0,.85Zm18.24,9.8a3.09,3.09,0,0,0,0,.86l-7.71-4.51a.64.64,0,0,0-.11-.24,2.17,2.17,0,0,1-.33-1.46c.15-1.41,1.31-2.24,2.53-3.13l.63-.47c.64-.49,3.44-2.19,6.28-3.9a4.81,4.81,0,0,0,1.49.23,7.83,7.83,0,0,0,4-1.3l5.76-3.41,2.33,1.46c-.75.44-1.47.95-2.17,1.45-.35.26-.71.52-1.06.76a2.45,2.45,0,0,0-1.21,1.5c-.26,1.43.93,2.69,1.76,3.45-3.29,1.89-6.81,3.89-8.78,4.94S295.61,962.39,295.4,963.81Zm16.15-15.1,3.41,2.13-6.17,3.59c-.53-.46-1.84-1.62-1.67-2.55,0-.23.36-.47.66-.68l1.1-.77A20.16,20.16,0,0,1,311.55,948.71Zm9.07,4.45c0,.71-1,1.19-1.82,1.62l-.62.33c-5.32,3-10.67,6.2-15.85,9.27l-.61.36c-2.17,1.32-3.68,1.22-4.52,1a2.24,2.24,0,0,1-.53-1.71c.15-1,1.1-2,2.76-2.82,4.44-2.34,16.59-9.47,16.72-9.54l0,0,1.47.92L299.33,963.1a.64.64,0,0,0,.64,1.11l20.4-11.79.24-.11A8,8,0,0,1,320.62,953.16Zm-6.7-7.58.05,0,6.38,3.81a1.65,1.65,0,0,1,.74.78.39.39,0,0,1-.09.34,2.92,2.92,0,0,1-1.19.81l-.05,0-.85.49-7.38-4.6A20.07,20.07,0,0,1,313.92,945.58Zm-1.18-.78a21.78,21.78,0,0,0-2.35,1.68l-1.18-.73,2.58-1.51Z"/><path class="cls-9" d="M831,416.61a26.19,26.19,0,1,0,26.18,26.19A26.22,26.22,0,0,0,831,416.61Zm0,47.21a21,21,0,1,1,21-21A21,21,0,0,1,831,463.82Z"/><line class="cls-17" x1="824.18" y1="450.96" x2="803.55" y2="471.59"/><line class="cls-17" x1="805.76" y1="1037.35" x2="866.38" y2="967.13"/><line class="cls-17" x1="118.61" y1="482.34" x2="250.83" y2="326.18"/><line class="cls-17" x1="108.88" y1="528.83" x2="201.78" y2="419.11"/><line class="cls-17" x1="189.14" y1="463.28" x2="321.36" y2="307.13"/><line class="cls-17" x1="478.95" y1="224.07" x2="584" y2="100"/><line class="cls-17" x1="421.4" y1="865.94" x2="492.42" y2="782.07"/><line class="cls-17" x1="396.81" y1="875.24" x2="450.02" y2="812.4"/><path class="cls-9" d="M332.86,245.67h0a7,7,0,0,1,9.9,0l21.09,21.09a7,7,0,0,1,0,9.91h0a7,7,0,0,1-9.9,0l-21.09-21.09A7,7,0,0,1,332.86,245.67Z"/><path class="cls-9" d="M363.85,245.67h0a7,7,0,0,1,0,9.91l-21.09,21.09a7,7,0,0,1-9.9,0h0a7,7,0,0,1,0-9.91L354,245.67A7,7,0,0,1,363.85,245.67Z"/><circle class="cls-9" cx="135.25" cy="166.79" r="4.76"/><circle class="cls-9" cx="135.25" cy="191.67" r="4.76"/><circle class="cls-9" cx="159.48" cy="166.79" r="4.76"/><circle class="cls-9" cx="159.48" cy="191.67" r="4.76"/><circle class="cls-9" cx="86.2" cy="166.79" r="4.76"/><circle class="cls-9" cx="86.2" cy="191.67" r="4.76"/><circle class="cls-9" cx="110.43" cy="166.79" r="4.76"/><circle class="cls-9" cx="110.43" cy="191.67" r="4.76"/><circle class="cls-9" cx="754.87" cy="865.72" r="8.42" transform="translate(-111.92 112.08) rotate(-7.91)"/><circle class="cls-9" cx="770.24" cy="845.39" r="8.42"/><path class="cls-18" d="M769.35,906.62h0a4.5,4.5,0,0,1,6.37,0l13.56,13.56a4.5,4.5,0,0,1,0,6.37h0a4.5,4.5,0,0,1-6.37,0L769.35,913A4.5,4.5,0,0,1,769.35,906.62Z"/><path class="cls-18" d="M789.28,906.62h0a4.5,4.5,0,0,1,0,6.37l-13.56,13.56a4.5,4.5,0,0,1-6.37,0h0a4.5,4.5,0,0,1,0-6.37l13.56-13.56A4.5,4.5,0,0,1,789.28,906.62Z"/><circle class="cls-18" cx="840.65" cy="908.2" r="3.16"/><path class="cls-18" d="M843.81,924.69a3.16,3.16,0,1,1-3.16-3.16A3.16,3.16,0,0,1,843.81,924.69Z"/><circle class="cls-18" cx="856.71" cy="908.2" r="3.16"/><path class="cls-18" d="M859.87,924.69a3.16,3.16,0,1,1-3.16-3.16A3.16,3.16,0,0,1,859.87,924.69Z"/><circle class="cls-18" cx="808.15" cy="908.2" r="3.16"/><path class="cls-18" d="M811.3,924.69a3.16,3.16,0,1,1-3.15-3.16A3.16,3.16,0,0,1,811.3,924.69Z"/><circle class="cls-18" cx="824.21" cy="908.2" r="3.16"/><path class="cls-18" d="M827.36,924.69a3.16,3.16,0,1,1-3.15-3.16A3.16,3.16,0,0,1,827.36,924.69Z"/><circle class="cls-18" cx="905.61" cy="908.2" r="3.16"/><path class="cls-18" d="M908.76,924.69a3.16,3.16,0,1,1-3.15-3.16A3.16,3.16,0,0,1,908.76,924.69Z"/><path class="cls-18" d="M924.82,908.2a3.16,3.16,0,1,1-3.16-3.15A3.16,3.16,0,0,1,924.82,908.2Z"/><path class="cls-18" d="M924.82,924.69a3.16,3.16,0,1,1-3.16-3.16A3.16,3.16,0,0,1,924.82,924.69Z"/><circle class="cls-18" cx="873.1" cy="908.2" r="3.16"/><path class="cls-18" d="M876.26,924.69a3.16,3.16,0,1,1-3.16-3.16A3.17,3.17,0,0,1,876.26,924.69Z"/><circle class="cls-18" cx="889.16" cy="908.2" r="3.16"/><path class="cls-18" d="M892.31,924.69a3.16,3.16,0,1,1-3.15-3.16A3.16,3.16,0,0,1,892.31,924.69Z"/><g class="cls-19"><path class="cls-9" d="M947.74,24.78V224.42L913.32,190a39.25,39.25,0,0,1,0-55.51l.81-.8a5.38,5.38,0,0,0,0-7.59h0a5.38,5.38,0,0,0-7.59,0l-46.15,46.15a18.58,18.58,0,0,1-26.28,0h0a18.58,18.58,0,0,1,0-26.28l66.62-66.62a5,5,0,0,0,0-7.08h0a5,5,0,0,0-7.08,0l-45,45a32.89,32.89,0,0,1-46.51,0h0a32.88,32.88,0,0,1,0-46.5l29.42-29.42-17.79-2.43-7.58,7.58L733,119.73a23.59,23.59,0,0,1-33.36,0h0a23.59,23.59,0,0,1,0-33.36l26.48-26.48a4.64,4.64,0,0,0,0-6.59l-.08-.08a4.51,4.51,0,0,0-6.38,0l-8.34,8.34a25.87,25.87,0,0,1-36.58,0L660.13,47l-.54-.51"/></g><g class="cls-20"><path class="cls-9" d="M36.82,900l59.84-59.84a34.35,34.35,0,0,1,48.59,0h0a34.35,34.35,0,0,1,0,48.59L118,916a15.09,15.09,0,0,0,0,21.34h0a15.08,15.08,0,0,0,21.33,0l5.92-5.93a31,31,0,0,1,43.85,0h0a31,31,0,0,1,0,43.85L164.81,999.5a6.71,6.71,0,0,0,0,9.49h0a6.72,6.72,0,0,0,9.48,0l59.26-59.26a26.82,26.82,0,0,1,37.92,0h0a26.82,26.82,0,0,1,0,37.92l-16,16a5.87,5.87,0,0,0,0,8.3h0a5.87,5.87,0,0,0,8.3,0l1.32-1.33a71.88,71.88,0,0,1,101.64,0l27.4,27.4H-49.7S42.15,905.29,36.82,900Z"/></g></svg>