<svg id="로그인" xmlns="http://www.w3.org/2000/svg" viewBox="0 0 154.94 184.91"><defs><style>.cls-1{fill:#fff;}.cls-2{fill:#2b2b2b;}</style></defs><title>표정</title><g id="_13" data-name="13"><g id="Eyes"><path class="cls-1" d="M138.7,68.68c5.37,10.59-.62,37.42-15.67,40.08-16.37,2.89-28.65-7-31.12-20-4.85-25.59,17-35.18,26.7-35.07C128.1,53.82,133.76,58.93,138.7,68.68Z"/><path class="cls-1" d="M38.29,53.35c6.54-1.64,33.82,4.6,26.26,33.22-3.38,12.8-16,23.17-29.4,19.83C20.3,102.69,13,78.12,20.71,67,24.25,61.82,31.85,55,38.29,53.35Z"/></g><path class="cls-2" d="M89.55,170.5c-3-1.37-6.46-.12-9.62.29A46.71,46.71,0,0,1,65,170.24c-.55-.11-1.13.6-.6,1,3.28,2.67,8.28,3,12.4,3.11,3.49.06,10.56.33,12.91-2.58A.85.85,0,0,0,89.55,170.5Z"/><path class="cls-2" d="M119.85,158.63c-14.61-.51-62.52-.79-76.58-.22-2.3.09-2.89,3.68.29,3.52,25.53-1.29,50.83.59,76.29.11A1.71,1.71,0,0,0,119.85,158.63Z"/><path class="cls-2" d="M120.05,51.13a32.12,32.12,0,0,0-13.13,2.94c-14.4,6.17-20.24,17.67-17.37,34.18C91,96.32,94.7,102.53,100,105.73c6.41,3.84,12.4,5.82,17.82,5.91,18.82.32,25.52-21.43,25.68-31.4C143.61,75.77,139.6,51.45,120.05,51.13ZM97.52,64.34c6.47-7.74,16.16-10.45,21.09-10.4h.12c8.78.14,14.49,4.44,19.76,14.83a16.79,16.79,0,0,1,1.37,4.09c-8.74.48-37.94-.12-47.43.42A34.64,34.64,0,0,1,97.52,64.34ZM136.12,97c-2.3,4.62-6.46,10.37-13.13,11.55a31.82,31.82,0,0,1-6.1.49h0c-12.53-.2-22.48-8.36-24.73-20.29A33.46,33.46,0,0,1,92,75.94a1.81,1.81,0,0,0,.68.09c4-.22,7.89.17,11.56.07a10,10,0,0,0,.47,11.79,8.09,8.09,0,0,0,6.2,3.34c2.71,0,5.73-1.49,8.07-4.11a8.23,8.23,0,0,0,2.18-6.72,9.06,9.06,0,0,0-2-4.33,161.62,161.62,0,0,0,21.11.18C141.06,82.85,139.5,90.21,136.12,97Z"/><path class="cls-2" d="M109,120.61c-1.18-5.44-5.27-10.85-10-13.16a1.79,1.79,0,0,0-.64-.19.8.8,0,0,0-.79.55c-.33.84.22,2.69,1.38,3.72,6.11,5.39,8.37,10.31,6.72,14.64-3,7.93-18.2,11.5-27.57,11.41-4.53-.07-22.12-3.08-27.22-11.81-1.91-3.27-1.77-7,.42-11,.47-.88,1.77-2.74,3.43-5.09,4.32-6.14,10.85-15.43,11.9-20.48,1.19-5.69,1.45-28.39,1.1-31.53-.24-2-3.8-14.73-4.22-15.95a21.06,21.06,0,0,1-1.81,2.1c.88,3.39,4.3,16.91,3.67,20.06C63.36,61.34,58.71,56,53,53.18a23.07,23.07,0,0,0-9.89-2.42c-7.24-.12-14.63,3.18-20.27,9.05s-8.47,13-8.08,19.9C15.34,90,21.35,109.64,39.9,110a35.83,35.83,0,0,0,12.68-2.4c-5.75,8-7.61,14-5.53,18,4.82,9.15,17.61,14.22,28.15,15.2,1.49.14,3,.22,4.44.24,8.41.14,20-1.58,27.35-10.56C109.11,127.82,109.78,124.43,109,120.61Zm-70.6-67A10.39,10.39,0,0,1,41,53.34c4.44.07,14.39,2.27,20.28,10a21.36,21.36,0,0,1,4.17,10.37l-.09,0c-3.8-.14-39.11-1.13-46.52-2.08a10.84,10.84,0,0,1,2.09-4.56C24.66,61.65,32.22,55.1,38.35,53.57Zm1.57,53.23a21.58,21.58,0,0,1-4.71-.62c-6.37-1.6-12-7.45-15.12-15.66-2.22-5.88-3.16-11.24-2.16-16.26,8.44.57,15.29,1.44,20.62,1.83,0,0-5.2,4-2.5,9.4,1.61,3.26,3.66,5.15,8.28,5.4a10.3,10.3,0,0,0,8.11-2.81c2.49-2.3,3.35-8,.56-10.87,3.08.13,9.24.26,12.33.2a1.27,1.27,0,0,0,.28-.06,36.78,36.78,0,0,1-1.29,9.16C61.23,98.25,50.74,107,39.92,106.8Z"/><path class="cls-2" d="M122.79,17.06c8.57,4.24,16.1,10.32,20.78,18.84-8.65-2.15-19.9,0-28.52,2.1-4.82,1.16-11.43,4-16.25,4.18S95.65,37.53,96,29.59c.15-4.85,2.44-16.58,9.72-17C111.26,12.33,117.85,14.61,122.79,17.06Z"/><path class="cls-2" d="M146.1,39.16a6.43,6.43,0,0,1-2.35-.25l-3.68-.22c-6.09-.36-12.39-.74-18.34.22a32.57,32.57,0,0,0-8.13,2.36,57.09,57.09,0,0,1-11.52,3.8,7,7,0,0,1-4-.19c-7.46-3.79-4.33-20.27-2.5-26.29a10.81,10.81,0,0,1,9.18-8.07c4-.64,9,.11,15.09,2.23,11,3.85,23.73,13.1,27.21,25.09a1.06,1.06,0,0,1-.07.85A1.2,1.2,0,0,1,146.1,39.16Zm-21.2-3.44c7.43-1.2,13.4-1.26,18.22-.16C138.84,28,132,21.86,122.68,17.26c-2.9-1.44-10.37-4.75-17-4.41l-.69.08c-6.8,1.1-8.68,12.69-8.8,16.66-.08,1.71.19,10.29,1.94,12.06a.82.82,0,0,0,.63.3,16.84,16.84,0,0,0,2.25-.23h0a60.11,60.11,0,0,0,8.44-2.3c2-.64,3.84-1.24,5.51-1.64C118.76,36.86,121.91,36.21,124.9,35.72Z"/><path class="cls-2" d="M64.5,30.86c0,1.36-2.06,11.78-4.72,11.59C55,42.12,48,38.45,43.19,37.1,34.68,34.65,25,32.52,16.27,34.31,21.32,26,29.64,19.57,38.35,15.68c5-2.24,12.31-4.31,17.86-3.82C63.48,12.55,64.56,26,64.5,30.86Z"/><path class="cls-2" d="M62,44.4c7.33-4.22,5-20.22,3.44-26.08a10.82,10.82,0,0,0-8.84-8.43c-3.92-.81-9-.27-15.18,1.59C30.27,14.88,17.21,23.6,13.2,35.62a.89.89,0,0,0,.2.82,1.43,1.43,0,0,0,.72.35,6.3,6.3,0,0,0,2.34-.16h0a110.13,110.13,0,0,1,23.52,2c2.21.45,4.41,1,6.54,1.6a30,30,0,0,1,3.15,1.3,73.38,73.38,0,0,0,8.39,3.09A10.7,10.7,0,0,0,62,44.4Zm-1.39-2.56a1.16,1.16,0,0,1-.85.38,15.22,15.22,0,0,1-1.9-.27A56.83,56.83,0,0,1,49.21,39c-2.15-.85-4.2-1.65-5.94-2.15-3.32-1-6.07-1.65-8.68-2.18C27.65,33.28,21.8,33,16.74,34c4.72-7.53,12.4-14,21.71-18.1,4.88-2.17,12.1-4.3,17.74-3.79.2,0,.4.05.6.08,7.59,1.56,7.49,18,7.48,18.68C64.25,32.15,62.7,40,60.64,41.84Z"/></g></svg>